<?xml version="1.0" encoding="UTF-8"?>
<svg width="291px" height="42px" viewBox="0 0 291 42" version="1.1" xmlns="http://www.w3.org/2000/svg" xmlns:xlink="http://www.w3.org/1999/xlink">
    <!-- Generator: Sketch 50.2 (55047) - http://www.bohemiancoding.com/sketch -->
    <title>Marriott_logo_horiz</title>
    <desc>Created with Sketch.</desc>
    <defs></defs>
    <g id="MI-Heartz-Landing---Desktop" stroke="none" stroke-width="1" fill="none" fill-rule="evenodd">
        <g id="MI---Landing---Home-Stacked-" transform="translate(-157.000000, -40.000000)" fill="#FFFFFF" fill-rule="nonzero">
            <g id="White-header" transform="translate(-1.000000, -1.000000)">
                <g id="Marriott_logo_horiz" transform="translate(158.000000, 41.000000)">
                    <path d="M19.25,18.797561 L16.65,24.1756098 C14.9,27.3512195 12.45,31.295122 8.7,32.2682927 C7.25,32.7804878 5.95,32.3195122 4.55,32.2170732 L0,39.8487805 C0.35,40.2073171 0.8,40.5146341 1.3,40.7195122 C9.3,43.8439024 12.5,40.4634146 20.4,22.2292683 L27.85,38.4658537 L37.75,38.4658537 L33.05,27.504878 L35.7,21.8195122 L43,38.2097561 L52.5,38.2609756 L35.9,0.973170732 L28.25,4.86585366 L34.25,18.797561 L31.6,24.2780488 L20.65,0 L12.6,4.2 L19.25,18.797561 Z" id="Shape"></path>
                    <polygon id="Shape" points="53.65 17.8243902 55.65 17.8243902 62.35 34.4707317 69.05 17.8243902 71.05 17.8243902 62.35 39.3878049"></polygon>
                    <path d="M87.7,38.4146341 L85.7,38.4146341 L83.8,33.702439 L74.2,33.702439 L72.3,38.4146341 L70.3,38.4146341 L79,16.8 L87.7,38.4146341 Z M74.95,31.8585366 L83.1,31.8585366 L79,21.7170732 L74.95,31.8585366 Z" id="Shape"></path>
                    <path d="M106.25,21.8195122 C104.65,20.1804878 102.45,19.1560976 100.05,19.1560976 C95.25,19.1560976 91.4,23.202439 91.4,28.1195122 C91.4,33.0365854 95.25,37.0829268 100.05,37.0829268 C102.45,37.0829268 104.65,36.0585366 106.25,34.4707317 L107.5,35.7512195 C105.6,37.697561 102.95,38.8756098 100.05,38.8756098 C94.25,38.8756098 89.55,34.0609756 89.55,28.1195122 C89.55,22.1780488 94.25,17.3634146 100.05,17.3634146 C102.95,17.3634146 105.6,18.5926829 107.5,20.5390244 L106.25,21.8195122 Z" id="Shape"></path>
                    <path d="M127.5,38.4146341 L125.5,38.4146341 L123.6,33.702439 L114,33.702439 L112.1,38.4146341 L110.1,38.4146341 L118.8,16.8512195 L127.5,38.4146341 Z M114.75,31.8585366 L122.9,31.8585366 L118.85,21.7170732 L114.75,31.8585366 Z" id="Shape"></path>
                    <polygon id="Shape" points="136.25 19.6682927 136.25 38.4146341 134.45 38.4146341 134.45 19.6682927 127.6 19.6682927 127.6 17.8243902 143.1 17.8243902 143.1 19.6682927"></polygon>
                    <polygon id="Shape" points="148.35 17.8243902 150.15 17.8243902 150.15 38.4146341 148.35 38.4146341"></polygon>
                    <path d="M165.35,38.8756098 C159.55,38.8756098 154.85,34.0609756 154.85,28.1195122 C154.85,22.1780488 159.55,17.3634146 165.35,17.3634146 C171.15,17.3634146 175.85,22.1780488 175.85,28.1195122 C175.85,34.0097561 171.15,38.8756098 165.35,38.8756098 Z M165.35,19.1560976 C160.55,19.1560976 156.7,23.202439 156.7,28.1195122 C156.7,33.0365854 160.55,37.0829268 165.35,37.0829268 C170.15,37.0829268 174,33.0365854 174,28.1195122 C174,23.202439 170.15,19.1560976 165.35,19.1560976 Z" id="Shape"></path>
                    <polygon id="Shape" points="181.85 22.0756098 181.85 38.4146341 180.05 38.4146341 180.05 16.8 193.75 34.1121951 193.75 17.8243902 195.55 17.8243902 195.55 39.3878049"></polygon>
                    <path d="M225.8,21.8195122 C224.2,20.1804878 222,19.1560976 219.6,19.1560976 C214.8,19.1560976 210.95,23.202439 210.95,28.1195122 C210.95,33.0365854 214.8,37.0829268 219.6,37.0829268 C222,37.0829268 224.2,36.0585366 225.8,34.4707317 L227.05,35.7512195 C225.15,37.697561 222.5,38.8756098 219.6,38.8756098 C213.8,38.8756098 209.1,34.0609756 209.1,28.1195122 C209.1,22.1780488 213.8,17.3634146 219.6,17.3634146 C222.5,17.3634146 225.15,18.5926829 227.05,20.5390244 L225.8,21.8195122 Z" id="Shape"></path>
                    <polygon id="Shape" points="246.15 38.4146341 232.45 38.4146341 232.45 17.8243902 234.25 17.8243902 234.25 36.5707317 246.15 36.5707317 246.15 38.4146341"></polygon>
                    <path d="M248.15,30.8853659 L248.15,17.8243902 L249.95,17.8243902 L249.95,30.9365854 C249.95,34.3170732 252.6,37.0829268 255.9,37.0829268 C259.15,37.0829268 261.8,34.3170732 261.8,30.9365854 L261.8,17.8243902 L263.6,17.8243902 L263.6,30.9365854 C263.6,35.3414634 260.1,38.8756098 255.85,38.8756098 C251.65,38.8756098 248.15,35.2902439 248.15,30.8853659 Z" id="Shape"></path>
                    <path d="M278.45,38.4146341 L269.05,38.4146341 L269.05,17.8243902 L278,17.8243902 C280.9,17.8243902 283.25,20.2317073 283.25,23.202439 C283.25,25.2512195 282.05,26.7365854 280.8,27.4536585 C282.55,28.1707317 284.15,30.0658537 284.15,32.5756098 C284.15,35.802439 281.6,38.4146341 278.45,38.4146341 Z M278,26.6853659 C279.9,26.6853659 281.4,25.097561 281.4,23.1512195 C281.4,21.204878 279.9,19.6170732 278,19.6170732 L270.9,19.6170732 L270.9,26.6341463 L278,26.6341463 L278,26.6853659 Z M278.45,28.5804878 L270.9,28.5804878 L270.9,36.5707317 L278.45,36.5707317 C280.55,36.5707317 282.3,34.7780488 282.3,32.5756098 C282.25,30.3731707 280.55,28.5804878 278.45,28.5804878 Z" id="Shape"></path>
                    <polygon id="Shape" points="54.6 3.43170732 56.05 3.43170732 58.35 7.47804878 60.6 3.43170732 62.05 3.43170732 62.45 11.9341463 61 11.9341463 60.75 6.04390244 58.75 9.52682927 58 9.52682927 56 6.14634146 55.75 11.9341463 54.3 11.9341463"></polygon>
                    <path d="M70.25,3.43170732 L71.85,3.43170732 L75,11.9341463 L73.25,11.9341463 L72.55,9.78292683 L69.45,9.78292683 L68.75,11.9341463 L67.1,11.9341463 L70.25,3.43170732 Z M72.1,8.45121951 L71,5.12195122 L69.9,8.45121951 L72.1,8.45121951 Z" id="Shape"></path>
                    <path d="M79.7,3.43170732 L82.45,3.43170732 C82.95,3.43170732 83.4,3.53414634 83.8,3.68780488 C84.15,3.84146341 84.45,4.04634146 84.7,4.30243902 C84.9,4.55853659 85.1,4.81463415 85.2,5.12195122 C85.3,5.42926829 85.35,5.68536585 85.35,5.99268293 C85.35,6.50487805 85.25,7.01707317 85,7.42682927 C84.75,7.83658537 84.4,8.14390244 83.95,8.4 L85.85,11.9853659 L84.1,11.9853659 L82.4,8.60487805 L81.2,8.60487805 L81.2,11.9853659 L79.7,11.9853659 L79.7,3.43170732 Z M82.45,7.27317073 C82.85,7.27317073 83.15,7.17073171 83.4,6.91463415 C83.6,6.65853659 83.75,6.40243902 83.75,6.04390244 C83.75,5.68536585 83.65,5.37804878 83.4,5.17317073 C83.15,4.96829268 82.85,4.81463415 82.5,4.81463415 L81.25,4.81463415 L81.25,7.27317073 L82.45,7.27317073 Z" id="Shape"></path>
                    <path d="M90.7,3.43170732 L93.45,3.43170732 C93.95,3.43170732 94.4,3.53414634 94.8,3.68780488 C95.15,3.84146341 95.45,4.04634146 95.7,4.30243902 C95.9,4.55853659 96.1,4.81463415 96.2,5.12195122 C96.3,5.42926829 96.35,5.68536585 96.35,5.99268293 C96.35,6.50487805 96.25,7.01707317 96,7.42682927 C95.75,7.83658537 95.4,8.14390244 94.95,8.4 L96.85,11.9853659 L95.1,11.9853659 L93.4,8.60487805 L92.2,8.60487805 L92.2,11.9853659 L90.7,11.9853659 L90.7,3.43170732 Z M93.5,7.27317073 C93.9,7.27317073 94.2,7.17073171 94.45,6.91463415 C94.65,6.65853659 94.8,6.40243902 94.8,6.04390244 C94.8,5.68536585 94.7,5.37804878 94.45,5.17317073 C94.2,4.96829268 93.9,4.81463415 93.55,4.81463415 L92.3,4.81463415 L92.3,7.27317073 L93.5,7.27317073 Z" id="Shape"></path>
                    <polygon id="Shape" points="101.75 3.43170732 103.3 3.43170732 103.3 11.9341463 101.75 11.9341463"></polygon>
                    <path d="M112.8,12.1902439 C112.2,12.1902439 111.65,12.0878049 111.1,11.8317073 C110.6,11.5756098 110.1,11.2682927 109.75,10.8585366 C109.4,10.4487805 109.05,9.98780488 108.85,9.42439024 C108.65,8.86097561 108.5,8.29756098 108.5,7.68292683 C108.5,7.06829268 108.6,6.45365854 108.85,5.94146341 C109.05,5.37804878 109.4,4.91707317 109.75,4.50731707 C110.15,4.09756098 110.6,3.7902439 111.1,3.53414634 C111.65,3.27804878 112.2,3.17560976 112.8,3.17560976 C113.4,3.17560976 113.95,3.27804878 114.5,3.53414634 C115,3.7902439 115.5,4.09756098 115.85,4.50731707 C116.25,4.91707317 116.55,5.37804878 116.75,5.94146341 C116.95,6.50487805 117.1,7.06829268 117.1,7.68292683 C117.1,8.29756098 117,8.91219512 116.75,9.42439024 C116.55,9.98780488 116.2,10.4487805 115.85,10.8585366 C115.45,11.2682927 115,11.5756098 114.5,11.8317073 C114,12.0365854 113.4,12.1902439 112.8,12.1902439 Z M112.8,10.6536585 C113.2,10.6536585 113.6,10.5512195 113.9,10.397561 C114.25,10.2439024 114.5,10.0390244 114.75,9.73170732 C115,9.47560976 115.15,9.11707317 115.3,8.75853659 C115.4,8.4 115.5,7.9902439 115.5,7.63170732 C115.5,7.22195122 115.45,6.86341463 115.3,6.45365854 C115.2,6.09512195 115,5.78780488 114.75,5.4804878 C114.5,5.22439024 114.25,4.96829268 113.9,4.81463415 C113.55,4.66097561 113.2,4.55853659 112.8,4.55853659 C112.4,4.55853659 112,4.66097561 111.7,4.81463415 C111.35,4.96829268 111.1,5.17317073 110.85,5.4804878 C110.6,5.73658537 110.45,6.09512195 110.3,6.45365854 C110.2,6.81219512 110.1,7.22195122 110.1,7.63170732 C110.1,8.04146341 110.15,8.4 110.3,8.75853659 C110.4,9.11707317 110.6,9.42439024 110.85,9.73170732 C111.1,9.98780488 111.35,10.2439024 111.7,10.397561 C112.05,10.5512195 112.4,10.6536585 112.8,10.6536585 Z" id="Shape"></path>
                    <polygon id="Shape" points="123.85 4.86585366 121 4.86585366 121 3.43170732 128.2 3.43170732 128.2 4.86585366 125.4 4.86585366 125.4 11.9853659 123.85 11.9853659"></polygon>
                    <polygon id="Shape" points="134.9 4.86585366 132.1 4.86585366 132.1 3.43170732 139.3 3.43170732 139.3 4.86585366 136.5 4.86585366 136.5 11.9853659 134.95 11.9853659 134.95 4.86585366"></polygon>
                    <path d="M289.8,22.8439024 C289.25,23.4073171 288.65,23.6634146 287.9,23.6634146 C287.15,23.6634146 286.5,23.4073171 286,22.8439024 C285.5,22.2804878 285.2,21.6658537 285.2,20.897561 C285.2,20.1292683 285.45,19.4634146 286,18.9512195 C286.5,18.4390244 287.15,18.1317073 287.9,18.1317073 C288.65,18.1317073 289.3,18.3878049 289.8,18.9512195 C290.35,19.4634146 290.6,20.1292683 290.6,20.897561 C290.6,21.6658537 290.35,22.3317073 289.8,22.8439024 Z M286.25,19.2073171 C285.8,19.6682927 285.55,20.2317073 285.55,20.897561 C285.55,21.5634146 285.75,22.1268293 286.2,22.5878049 C286.65,23.0487805 287.2,23.304878 287.85,23.304878 C288.5,23.304878 289.05,23.0487805 289.5,22.5878049 C289.95,22.1268293 290.2,21.5634146 290.2,20.897561 C290.2,20.2317073 289.95,19.6682927 289.5,19.2073171 C289.05,18.7463415 288.5,18.4902439 287.85,18.4902439 C287.25,18.4902439 286.7,18.7463415 286.25,19.2073171 Z M287.85,19.3609756 C288.2,19.3609756 288.5,19.4121951 288.65,19.4634146 C288.95,19.6170732 289.1,19.8731707 289.1,20.2317073 C289.1,20.4878049 289,20.6926829 288.8,20.8463415 C288.7,20.897561 288.55,20.9487805 288.35,21 C288.6,21.0512195 288.75,21.1536585 288.85,21.3073171 C288.95,21.4609756 289,21.6146341 289,21.7682927 L289,21.9731707 C289,22.0243902 289,22.1268293 289,22.1780488 C289,22.2804878 289,22.3317073 289.05,22.3317073 L289.05,22.3829268 L288.55,22.3829268 C288.55,22.3829268 288.55,22.3829268 288.55,22.3317073 C288.55,22.3317073 288.55,22.3317073 288.55,22.2804878 L288.55,22.1780488 L288.55,21.9219512 C288.55,21.5634146 288.45,21.3585366 288.25,21.204878 C288.15,21.1536585 287.95,21.102439 287.65,21.102439 L287.25,21.102439 L287.25,22.2804878 L286.75,22.2804878 L286.75,19.2585366 L287.85,19.2585366 L287.85,19.3609756 Z M288.4,19.8219512 C288.25,19.7707317 288.05,19.7195122 287.75,19.7195122 L287.3,19.7195122 L287.3,20.795122 L287.75,20.795122 C287.95,20.795122 288.15,20.795122 288.25,20.7439024 C288.45,20.6414634 288.55,20.4878049 288.55,20.2829268 C288.6,20.0780488 288.55,19.9243902 288.4,19.8219512 Z" id="Shape"></path>
                </g>
            </g>
        </g>
    </g>
</svg>