<?xml version="1.0" standalone="no"?>
<!DOCTYPE svg PUBLIC "-//W3C//DTD SVG 20010904//EN"
 "http://www.w3.org/TR/2001/REC-SVG-20010904/DTD/svg10.dtd">
<svg version="1.0" xmlns="http://www.w3.org/2000/svg"
 width="1500.000000pt" height="1105.000000pt" viewBox="0 0 1500.000000 1105.000000"
 preserveAspectRatio="xMidYMid meet">
<metadata>
Created by potrace 1.15, written by Peter Selinger 2001-2017
</metadata>
<g transform="translate(0.000000,1105.000000) scale(0.100000,-0.100000)"
fill="#EEEEED" stroke="none">
<path d="M5105 8864 c-38 -16 -83 -27 -122 -28 -72 -3 -118 -31 -162 -100 -92
-145 -150 -204 -275 -281 -130 -80 -262 -180 -426 -325 -258 -227 -382 -372
-483 -568 -86 -166 -134 -329 -164 -557 l-8 -60 -14 43 c-13 38 -13 48 4 100
10 31 18 82 17 112 0 30 4 72 9 93 5 21 14 77 20 125 10 95 50 196 95 243 20
20 27 43 35 100 5 41 16 115 25 164 l16 90 -31 92 c-38 113 -38 149 -5 254 27
86 43 107 124 164 83 59 162 206 146 271 -12 45 -39 24 -82 -64 -37 -77 -44
-85 -103 -120 -102 -59 -140 -103 -193 -223 -60 -134 -62 -170 -13 -320 19
-60 35 -118 35 -130 0 -12 -32 -81 -70 -154 -59 -112 -76 -155 -105 -271 -39
-156 -42 -200 -19 -286 8 -33 13 -72 9 -87 -7 -34 20 -197 36 -219 7 -9 25
-30 40 -47 28 -30 28 -31 31 -195 l3 -165 -46 77 c-149 247 -430 490 -744 642
-94 46 -329 120 -462 147 -138 27 -407 37 -565 20 -166 -18 -412 -77 -535
-127 -17 -7 -17 22 3 137 40 234 140 401 341 569 107 89 182 131 366 201 82
32 154 62 160 68 21 21 -2 22 -40 3 -21 -11 -84 -36 -138 -55 -219 -76 -337
-149 -484 -297 -102 -102 -142 -161 -196 -287 -35 -81 -75 -252 -75 -321 l0
-40 -102 -50 c-93 -44 -206 -107 -282 -157 l-28 -19 31 62 c23 46 47 74 100
116 145 116 214 258 281 573 36 169 103 381 132 419 12 15 96 62 206 116 211
104 252 137 276 220 15 50 46 249 46 290 0 31 -29 33 -56 4 -36 -38 -103 -69
-243 -110 -185 -55 -221 -78 -260 -166 -30 -68 -35 -135 -17 -207 16 -62 16
-63 -10 -125 -44 -103 -90 -249 -113 -354 -65 -298 -102 -406 -170 -504 -21
-30 -71 -82 -112 -116 -51 -42 -82 -77 -101 -113 -26 -50 -28 -51 -28 -23 0
52 20 183 41 265 11 43 51 152 90 243 38 90 75 187 82 215 10 43 19 56 58 84
33 23 55 51 75 92 26 52 29 68 29 159 0 80 -4 106 -18 128 -25 37 -96 81 -176
107 -98 32 -180 78 -197 111 -19 37 -51 37 -65 1 -13 -33 -3 -154 16 -199 7
-17 49 -80 93 -138 90 -119 132 -196 137 -253 5 -53 -15 -117 -90 -293 -83
-193 -113 -307 -128 -487 l-11 -141 -62 58 c-93 86 -147 105 -304 105 -157 0
-180 -6 -180 -44 l0 -28 48 9 c26 5 88 10 137 10 136 0 229 -41 303 -135 l33
-42 -78 -69 c-108 -97 -202 -195 -292 -306 -115 -143 -151 -202 -151 -246 l0
-37 56 83 c335 501 823 841 1384 964 171 37 318 50 514 43 187 -7 300 -24 171
-26 -177 -3 -386 -41 -585 -107 -153 -51 -417 -177 -533 -255 -249 -166 -482
-444 -640 -764 -169 -339 -245 -667 -234 -1005 14 -406 164 -802 487 -1285
164 -245 407 -553 588 -745 39 -41 70 -75 69 -76 -1 -1 -56 -13 -121 -26
l-120 -25 -85 34 c-339 132 -659 422 -883 800 -63 106 -63 106 -66 69 -3 -30
6 -53 40 -109 211 -350 546 -657 855 -782 l54 -22 -218 -53 c-179 -43 -511
-129 -695 -180 -37 -10 -38 -12 -38 -55 l0 -44 41 14 c58 21 102 19 124 -5 24
-26 59 -25 78 2 l15 23 22 -20 c12 -11 26 -30 31 -42 6 -17 17 -23 39 -23 16
0 30 4 30 10 0 5 11 17 24 25 32 21 62 6 82 -41 17 -40 43 -44 81 -14 14 11
31 20 38 20 16 0 30 -28 34 -67 3 -28 42 -24 77 6 19 17 41 31 48 31 16 0 62
-58 67 -84 7 -36 34 -42 77 -18 22 12 47 22 56 22 19 0 36 -30 36 -65 l0 -26
-37 25 c-34 24 -38 24 -71 10 -51 -21 -65 -18 -164 31 -111 55 -135 56 -185 9
l-38 -36 28 -24 c25 -22 169 -74 204 -74 9 0 72 -30 140 -67 86 -47 134 -80
155 -106 35 -44 75 -67 116 -67 35 0 51 17 63 67 7 35 5 41 -28 75 l-35 36 47
7 c25 4 50 4 55 -1 5 -5 14 -31 21 -59 17 -74 20 -78 80 -90 91 -19 129 -46
183 -133 26 -42 57 -55 73 -30 4 7 8 37 9 66 1 68 10 77 62 61 51 -15 67 -9
93 36 20 34 21 34 49 20 39 -20 69 -19 77 3 10 27 35 52 53 52 10 0 29 -9 43
-20 35 -27 48 -25 79 12 l26 33 24 -23 c32 -29 57 -28 85 6 21 25 24 25 33 9
17 -27 49 -20 92 19 l40 36 28 -27 c32 -30 65 -28 75 6 10 32 51 52 90 46 29
-5 56 5 155 53 93 46 147 65 237 85 281 62 382 105 473 199 36 38 75 72 86 76
24 9 64 3 64 -11 0 -19 -152 -161 -222 -207 -75 -49 -138 -74 -308 -127 -119
-37 -253 -102 -362 -177 -90 -61 -219 -183 -408 -385 -65 -70 -115 -110 -216
-177 -75 -48 -145 -103 -163 -125 -36 -45 -108 -193 -117 -241 -4 -17 -10 -29
-14 -28 -3 2 -44 48 -91 103 -46 55 -127 143 -180 195 -67 67 -105 114 -128
160 -58 113 -242 345 -344 435 -65 57 -188 118 -379 189 -196 73 -266 89 -610
142 -33 5 -38 3 -38 -13 0 -17 13 -21 98 -33 53 -7 158 -25 232 -40 204 -41
519 -164 647 -252 80 -55 306 -335 365 -453 21 -42 66 -96 147 -180 129 -133
205 -219 243 -280 22 -33 25 -50 23 -99 -2 -32 -7 -62 -12 -66 -4 -5 -100 -56
-213 -115 -228 -118 -353 -201 -478 -319 -143 -136 -308 -358 -398 -539 -64
-127 -68 -137 -45 -137 13 0 31 26 64 95 25 52 48 95 50 95 2 0 -6 -41 -19
-92 -22 -81 -24 -112 -9 -96 3 2 12 36 21 74 24 105 32 121 87 170 l51 45 19
-62 c15 -51 30 -73 79 -122 48 -49 58 -64 54 -84 -4 -12 -2 -23 4 -23 5 0 13
12 16 26 5 21 -2 33 -49 77 -54 51 -86 106 -102 175 -3 18 -11 32 -15 32 -10
0 -71 -51 -108 -90 -30 -32 -20 -13 41 80 213 319 397 482 740 656 82 42 171
89 199 105 l50 29 108 -95 c198 -174 252 -243 378 -485 96 -184 134 -276 169
-410 22 -83 29 -100 45 -100 14 0 18 5 14 18 -3 9 -14 53 -25 98 -37 147 -95
281 -210 489 -93 167 -123 205 -286 363 -74 72 -135 135 -135 140 0 11 48 22
101 22 39 0 39 0 19 -20 -11 -11 -20 -28 -20 -39 0 -10 36 -54 81 -97 80 -79
203 -244 252 -339 14 -27 46 -79 71 -114 25 -35 52 -87 60 -115 24 -80 34 -90
87 -79 42 9 44 10 41 41 -2 18 2 57 8 87 10 46 8 63 -8 117 -32 101 -68 175
-94 189 -83 44 -153 136 -172 225 -11 52 -71 96 -169 126 l-62 18 85 -5 c104
-7 251 -38 350 -75 41 -15 165 -68 275 -118 204 -92 328 -139 423 -162 43 -10
51 -15 41 -26 -7 -9 -9 -31 -6 -56 7 -49 39 -82 71 -74 12 3 49 6 83 6 56 0
65 3 112 40 84 67 82 136 -3 86 -37 -21 -57 -26 -115 -26 -63 0 -121 14 -121
29 0 3 44 6 98 6 110 1 198 25 335 94 73 37 77 37 83 18 5 -16 -10 -34 -71
-91 -93 -85 -177 -150 -225 -172 -48 -24 -116 -30 -146 -13 -39 20 -60 2 -56
-50 4 -48 -11 -53 -64 -20 -38 23 -74 18 -74 -11 0 -48 -20 -62 -51 -34 -21
19 -55 11 -64 -15 -3 -10 -15 -27 -26 -37 -20 -18 -21 -17 -42 10 -33 41 -63
31 -81 -26 -7 -24 -35 -12 -47 19 -14 37 -39 41 -65 8 l-23 -29 -58 31 c-43
23 -64 28 -76 21 -29 -16 -19 -40 42 -97 32 -31 68 -76 80 -99 26 -50 37 -128
25 -169 -7 -24 -8 -20 -14 32 -6 57 -48 160 -85 209 -15 19 -15 19 -37 -1 -13
-11 -34 -24 -48 -28 -65 -19 -77 -76 -40 -193 11 -35 20 -75 20 -88 0 -13 5
-24 10 -24 13 0 5 51 -22 140 -24 82 -18 127 20 142 15 5 39 16 54 24 14 8 28
14 31 14 2 0 21 -33 40 -72 27 -55 38 -91 42 -143 3 -38 8 -78 11 -87 7 -25
23 -23 17 1 -5 20 -5 20 33 0 41 -20 124 -26 124 -8 0 21 -21 49 -47 63 l-27
14 55 15 c30 9 176 47 324 86 149 39 291 77 318 85 26 8 47 12 47 9 0 -21 -31
-49 -89 -78 -51 -25 -86 -53 -140 -112 -39 -43 -71 -81 -71 -85 0 -5 10 -8 23
-8 16 0 42 21 84 68 78 86 204 157 307 171 153 22 137 96 -30 146 -133 40
-299 125 -244 125 6 0 33 -12 61 -26 28 -14 100 -43 160 -64 138 -50 143 -53
168 -94 41 -65 25 -85 -97 -122 -118 -36 -235 -94 -304 -151 -32 -27 -53 -49
-48 -51 5 -2 35 17 66 43 69 56 195 118 285 140 37 9 81 25 98 36 26 16 31 25
31 58 0 24 -8 48 -22 67 -21 26 -21 27 -3 20 79 -34 107 -7 135 125 28 134 45
173 113 266 34 46 62 81 64 80 1 -2 -13 -39 -32 -83 -19 -45 -44 -114 -54
-155 -11 -41 -31 -104 -45 -142 -35 -92 -34 -128 5 -161 38 -32 67 -33 166 -1
43 13 121 31 173 39 52 8 104 17 115 21 20 6 20 6 1 -9 -32 -26 -228 -79 -358
-96 -105 -14 -129 -26 -152 -73 -17 -35 -17 -45 -6 -100 7 -34 17 -66 23 -72
6 -7 7 2 3 25 -21 107 -20 125 10 159 26 28 38 33 126 46 186 27 361 83 433
139 20 15 20 15 -2 16 -12 0 -34 -5 -48 -10 -15 -6 -71 -17 -124 -26 -53 -8
-142 -28 -199 -44 -97 -28 -106 -29 -133 -14 -50 25 -54 50 -23 135 14 41 34
103 44 139 22 84 49 156 94 250 59 122 20 98 -101 -61 -59 -78 -85 -141 -108
-260 -20 -109 -36 -133 -81 -126 -19 3 -47 15 -63 26 -15 11 -78 45 -139 75
-61 31 -113 60 -117 66 -8 14 1 13 33 -4 15 -7 51 -19 79 -26 29 -6 80 -30
114 -51 116 -75 140 -64 150 68 11 134 43 189 206 350 159 159 184 172 119 64
-76 -127 -104 -195 -124 -308 -15 -85 -29 -126 -56 -176 -41 -72 -44 -97 -18
-120 25 -23 47 -21 139 8 85 26 186 45 247 45 24 0 88 20 162 50 114 46 154
53 154 28 0 -5 -38 -26 -84 -48 -47 -21 -120 -61 -163 -89 -123 -79 -174 -98
-343 -127 -85 -15 -161 -32 -167 -37 -18 -13 -16 -42 8 -108 l22 -59 48 0 c39
0 49 3 49 17 0 24 47 81 83 100 37 19 122 43 154 43 25 0 58 -54 71 -117 5
-24 14 -39 26 -41 15 -3 16 1 10 35 -7 43 -33 104 -64 149 l-21 32 58 32 c32
18 68 39 80 47 21 14 25 12 68 -32 61 -63 92 -118 111 -198 11 -42 22 -67 30
-67 18 0 18 34 -2 101 -20 69 -46 111 -108 177 -27 29 -47 54 -45 57 3 2 50
25 104 50 l100 47 32 -39 c72 -84 133 -246 133 -350 0 -33 4 -43 16 -43 15 0
16 10 11 78 -11 162 -85 304 -236 452 -47 47 -120 108 -161 137 -73 50 -248
143 -269 143 -29 0 -17 22 21 37 24 9 88 39 142 66 l100 50 50 -28 c261 -145
441 -353 503 -585 18 -68 25 -256 11 -318 -7 -31 -6 -33 14 -30 18 2 24 12 31
48 9 48 3 239 -9 279 -6 20 5 34 72 100 87 84 201 149 309 176 105 27 123 24
206 -32 107 -72 219 -126 339 -163 58 -18 112 -35 120 -38 8 -3 -5 -8 -30 -12
-186 -30 -513 -151 -845 -311 l-90 -44 40 -3 c32 -2 65 9 160 54 229 108 509
212 668 249 147 34 195 36 372 20 94 -9 256 -15 360 -15 114 1 210 -3 240 -10
28 -7 102 -12 166 -12 188 1 385 42 889 187 303 87 481 124 639 132 l115 6
-40 -49 c-55 -66 -78 -107 -105 -184 -44 -130 -20 -380 37 -380 23 0 23 0 8
42 -47 133 -38 263 26 393 38 78 130 192 147 182 4 -2 34 -12 66 -21 l57 -17
-34 -34 c-60 -60 -96 -211 -95 -395 1 -112 8 -144 33 -148 15 -3 18 0 12 19
-15 55 -18 152 -7 245 23 199 67 284 146 284 32 0 130 -53 173 -93 34 -32 69
-96 75 -140 l6 -37 -43 0 c-54 0 -125 -37 -148 -76 -23 -40 -10 -88 36 -133
143 -138 419 56 377 266 -28 141 -146 291 -313 400 -149 96 -284 127 -565 128
-112 0 -202 3 -200 7 1 3 44 38 96 78 l93 71 97 -11 c509 -59 844 -251 941
-540 40 -119 38 -297 -6 -449 -6 -19 -4 -22 12 -19 47 8 72 294 39 437 -61
257 -306 454 -686 551 -67 17 -317 60 -352 60 -5 0 16 20 46 45 l56 45 99 0
c226 0 459 -82 677 -238 279 -200 388 -557 256 -839 -28 -60 -29 -63 -10 -63
14 0 27 15 44 53 88 189 68 438 -51 642 -112 190 -354 357 -638 439 -89 26
-281 51 -310 40 -24 -9 -19 14 6 27 44 23 164 50 253 55 117 8 198 -11 324
-76 274 -141 515 -436 592 -725 38 -140 31 -315 -18 -441 -4 -12 -1 -15 18
-12 29 4 46 47 62 166 20 153 -24 366 -110 522 -161 296 -468 551 -724 601
-67 13 -226 7 -274 -10 l-30 -11 25 21 c145 126 365 286 505 369 80 47 296
152 302 146 2 -1 -2 -18 -7 -37 -50 -172 74 -423 340 -688 291 -291 565 -418
854 -397 462 34 854 323 1013 746 150 396 63 810 -259 1232 -190 251 -496 474
-792 577 -189 67 -486 105 -648 84 l-66 -9 60 65 c129 141 228 424 228 651 0
85 -25 204 -58 274 -70 147 -213 222 -377 196 -171 -27 -339 -142 -412 -282
-23 -44 -27 -66 -27 -128 0 -63 4 -84 28 -129 34 -66 100 -137 171 -187 30
-20 52 -41 49 -46 -3 -4 -38 -30 -77 -57 -217 -146 -500 -236 -777 -248 -89
-3 -184 1 -329 16 -113 12 -240 21 -283 21 l-78 0 0 38 c0 21 -5 65 -11 98
-57 322 -284 595 -617 740 -109 48 -45 43 158 -11 80 -21 166 -16 297 19 115
32 359 124 374 142 21 26 2 42 -58 48 -32 4 -128 25 -213 47 -211 54 -297 69
-398 69 -138 -1 -239 -46 -373 -168 l-69 -64 -118 -3 c-292 -7 -547 -147 -679
-372 -18 -31 -54 -64 -127 -115 -55 -39 -121 -87 -146 -107 l-45 -36 55 65
c100 119 493 506 621 611 331 273 711 497 884 522 69 10 80 9 187 -21 179 -50
231 -54 351 -30 146 29 310 29 452 -1 120 -26 211 -25 314 3 101 28 105 59 9
83 -81 20 -154 52 -258 112 -190 109 -397 181 -524 181 -157 0 -383 -95 -596
-250 -36 -26 -128 -79 -205 -118 -165 -84 -308 -173 -445 -276 -55 -41 -100
-73 -100 -72 0 1 20 38 45 81 81 143 140 319 165 490 13 93 13 285 -1 381 -32
229 -143 463 -293 617 -173 177 -388 271 -651 283 -393 19 -731 -190 -810
-501 -20 -77 -19 -211 1 -289 47 -181 185 -336 349 -391 l64 -22 -22 -20 c-32
-30 -115 -69 -215 -103 -102 -34 -294 -74 -787 -165 -592 -109 -807 -158
-1128 -254 -246 -75 -593 -208 -768 -297 -37 -18 -55 -21 -91 -16 l-46 7 64
179 c36 99 110 301 165 449 93 248 105 275 153 331 28 34 62 78 75 99 21 35
25 37 59 31 20 -4 61 -19 92 -33 58 -27 114 -32 187 -18 46 9 47 9 121 -81 15
-18 40 -35 57 -38 27 -5 39 2 102 60 42 39 80 66 93 66 12 0 43 -10 71 -21 60
-26 80 -56 120 -181 41 -128 154 -326 194 -342 28 -10 63 -7 100 11 43 20 44
38 5 58 -51 26 -64 65 -65 195 -1 99 -5 127 -30 200 -27 78 -35 91 -106 160
-72 71 -77 79 -93 145 -37 150 -119 200 -248 150 -42 -15 -54 -16 -112 -4
l-65 12 -47 -36 c-52 -40 -61 -43 -98 -26 -30 14 -53 1 -136 -76 -51 -47 -110
-91 -110 -81 0 2 11 28 24 59 32 70 55 152 70 241 l12 71 103 -4 c66 -2 144 3
215 14 l111 18 120 -41 c155 -53 234 -66 323 -52 140 22 222 59 222 99 0 14
-11 20 -50 24 -46 6 -89 21 -278 101 -35 15 -97 35 -138 43 -73 16 -78 16
-177 -6 -56 -12 -126 -33 -155 -47 -62 -27 -208 -64 -257 -64 l-33 0 -4 68
c-5 74 -1 82 99 215 42 55 105 150 138 210 9 16 22 75 30 133 11 86 20 116 52
175 21 39 48 78 60 86 12 8 48 17 80 20 105 10 143 44 167 151 8 38 23 86 32
107 18 44 121 201 166 253 33 39 38 82 8 82 -12 0 -28 -14 -41 -38 -17 -29
-40 -48 -96 -76 -74 -38 -123 -89 -123 -128 0 -38 -33 -98 -64 -116 -30 -17
-185 -70 -273 -92 -31 -8 -52 -23 -83 -60 -56 -67 -70 -130 -80 -355 -7 -174
-9 -183 -45 -280 -20 -55 -40 -106 -44 -113 -4 -7 -13 115 -20 270 -20 446 12
676 127 908 36 72 40 76 106 110 97 48 175 53 240 15 37 -22 54 -26 84 -21 74
12 111 27 117 46 5 16 10 18 26 9 33 -17 84 -7 87 17 3 18 8 20 55 16 53 -4
53 -4 121 58 109 99 143 107 278 63 142 -46 225 -35 317 43 36 30 85 98 95
132 13 39 -19 38 -54 -2 -66 -75 -151 -74 -350 5 -126 51 -140 54 -220 54 -92
0 -135 -16 -212 -77 -21 -16 -54 -32 -75 -35 -55 -8 -91 -29 -108 -62 -9 -18
-28 -34 -48 -40 -38 -13 -278 -43 -285 -36 -9 9 306 313 433 419 72 59 196
152 277 207 89 60 164 119 190 149 31 37 58 56 98 71 123 47 281 99 300 99 24
0 45 -31 60 -90 22 -82 117 -150 209 -150 17 0 50 4 73 10 24 5 79 13 124 18
57 6 90 16 110 31 16 11 71 32 123 45 97 24 124 43 101 72 -17 20 -59 18 -151
-8 -70 -19 -85 -20 -132 -9 -101 22 -203 79 -345 193 -86 68 -112 72 -207 32z
m180 -56 c144 -114 272 -185 371 -204 l39 -8 -30 -7 c-88 -20 -216 1 -240 40
-3 7 -58 45 -120 86 -92 61 -121 75 -152 75 -56 0 -163 -25 -234 -54 -35 -14
-65 -23 -68 -20 -3 3 13 23 36 45 37 34 48 39 91 39 28 0 84 13 132 30 47 16
94 27 105 24 11 -4 43 -24 70 -46z m-11 -104 c45 -29 95 -64 111 -77 82 -67
149 -86 243 -69 28 5 52 6 52 1 0 -9 -34 -16 -120 -24 -36 -3 -85 -11 -110
-17 -66 -15 -124 3 -177 57 -24 24 -43 52 -43 64 0 27 -27 82 -49 98 -9 7 -27
13 -41 13 -20 0 -22 2 -10 10 23 14 56 2 144 -56z m-3689 -21 c-69 -62 -205
-166 -211 -161 -2 3 7 15 21 28 27 26 33 60 11 60 -22 0 -106 -99 -156 -183
-25 -42 -48 -77 -52 -77 -28 -1 9 153 47 198 28 33 190 119 285 151 36 12 72
25 80 31 8 5 17 6 20 3 3 -3 -17 -25 -45 -50z m10 -63 c-49 -97 -94 -145 -158
-166 -29 -9 -75 -30 -103 -45 -28 -16 -53 -29 -57 -29 -20 0 43 74 95 111 117
84 173 128 208 163 19 19 38 35 43 35 4 1 -9 -31 -28 -69z m40 -42 c-25 -100
-43 -115 -237 -211 -95 -46 -174 -83 -176 -82 -2 2 4 15 14 29 19 30 115 86
209 123 78 30 121 74 167 172 38 80 48 66 23 -31z m1991 -146 c-23 -44 -46
-145 -46 -199 0 -27 12 -83 26 -124 28 -80 28 -83 0 -290 -12 -95 -17 -110
-49 -152 -46 -61 -76 -143 -88 -242 -5 -44 -14 -98 -19 -120 -5 -22 -10 -64
-10 -94 0 -54 -18 -131 -30 -131 -12 0 43 379 71 492 10 42 19 88 19 102 0 15
16 43 39 70 47 54 64 120 64 246 0 65 -6 104 -25 163 -21 62 -24 85 -17 110 5
18 13 58 19 91 9 59 32 106 50 106 6 0 4 -12 -4 -28z m-3006 -72 c19 -25 66
-80 104 -123 70 -78 70 -79 74 -145 l4 -67 -49 75 c-27 41 -75 108 -105 148
-31 39 -59 87 -63 105 -4 17 -9 41 -12 52 -6 24 0 17 47 -45z m132 -44 c130
-81 189 -251 113 -325 l-27 -26 7 25 c12 37 9 123 -4 147 -6 12 -11 36 -11 53
0 31 -30 56 -38 32 -7 -22 -19 -12 -93 74 -94 108 -103 125 -48 87 24 -17 70
-47 101 -67z m36 34 c43 -16 92 -42 110 -57 29 -25 33 -35 39 -94 3 -37 2 -84
-2 -105 l-8 -39 -14 64 c-23 109 -70 171 -173 230 -69 39 -51 40 48 1z m3987
-410 c111 -45 142 -54 214 -58 67 -4 80 -7 65 -16 -11 -6 -55 -10 -99 -10 -63
1 -100 8 -175 34 -146 50 -252 39 -400 -42 -231 -127 -287 -145 -417 -134 -56
5 -91 3 -125 -8 -27 -8 -48 -10 -48 -6 0 19 77 41 177 51 149 14 182 24 224
69 43 45 69 60 102 60 14 0 55 21 93 47 132 90 192 92 389 13z m-20 -71 c66
-23 115 -33 185 -37 89 -5 93 -6 65 -18 -47 -20 -123 -16 -209 11 -143 45
-206 31 -317 -71 l-59 -54 -54 6 c-50 6 -55 5 -66 -17 -7 -13 -14 -25 -15 -27
-1 -1 -16 3 -34 9 -29 10 -35 9 -60 -15 -41 -39 -127 -47 -169 -17 -17 12 -43
24 -59 27 -41 8 -139 -12 -195 -40 -52 -25 -63 -19 -22 13 48 38 120 54 208
48 139 -11 213 12 438 136 82 45 175 74 243 76 17 1 71 -13 120 -30z m-521
-506 c-13 -20 -30 -57 -36 -82 -9 -38 -26 -60 -92 -123 -66 -64 -91 -81 -136
-94 -99 -29 -105 -34 -145 -139 -21 -52 -41 -98 -46 -101 -22 -14 -60 -109
-76 -195 l-18 -94 -3 152 c-2 119 1 160 13 189 8 20 15 50 15 66 0 18 13 46
33 71 42 55 55 64 97 71 19 3 82 21 139 39 147 47 181 79 205 189 6 28 52 88
67 88 4 0 -3 -17 -17 -37z m-1825 -83 c264 -52 639 -281 840 -513 271 -312
354 -657 240 -1000 -156 -473 -640 -836 -1112 -837 -137 0 -233 22 -355 81
-86 42 -115 62 -185 132 -49 48 -105 117 -136 167 -51 84 -52 86 -46 143 7 66
34 160 67 233 l22 49 12 -73 c40 -230 157 -393 349 -487 114 -57 181 -70 340
-69 170 1 251 20 405 95 92 45 116 63 195 143 79 79 98 105 143 196 68 140 93
242 100 405 10 271 -52 460 -207 627 -197 213 -532 338 -907 338 -212 0 -370
-32 -579 -117 -324 -132 -570 -353 -715 -642 -45 -91 -106 -280 -126 -396 -24
-134 -24 -427 0 -575 103 -646 472 -1241 975 -1572 58 -39 108 -72 110 -74 3
-3 -20 -30 -51 -62 -69 -72 -160 -179 -218 -259 l-45 -61 -100 -21 -100 -21
-83 88 c-173 181 -410 476 -574 717 -385 564 -549 1069 -498 1530 68 606 412
1208 865 1512 256 171 641 310 953 343 118 12 304 3 421 -20z m1761 -156 c-25
-91 -47 -111 -138 -124 -40 -5 -82 -16 -93 -22 -21 -13 -89 -122 -110 -175 -6
-15 -15 -68 -19 -116 -8 -82 -12 -94 -64 -182 -61 -101 -95 -147 -96 -128 0 6
4 14 9 18 14 8 49 119 70 226 18 90 49 170 70 183 5 4 26 49 46 101 41 104 50
113 140 136 35 9 64 28 114 73 36 34 68 64 69 69 2 4 8 7 12 7 5 0 0 -30 -10
-66z m-1705 -273 c426 -94 679 -301 767 -626 17 -66 21 -108 21 -235 0 -135
-3 -167 -26 -252 -41 -153 -104 -266 -206 -369 -98 -97 -172 -143 -306 -188
-288 -96 -572 -43 -757 140 -102 102 -160 236 -174 401 l-6 73 66 72 c92 99
170 138 276 138 116 0 119 -3 66 -75 -105 -142 -103 -266 6 -366 131 -121 315
-174 478 -140 201 43 307 159 333 365 44 355 -188 613 -596 661 -325 38 -642
-91 -910 -369 -150 -156 -244 -324 -281 -503 -20 -98 -20 -262 0 -368 85 -448
506 -926 1042 -1183 l102 -49 -58 -42 c-94 -70 -261 -212 -348 -297 l-82 -80
-62 37 c-155 90 -333 242 -467 399 -367 426 -575 962 -575 1480 1 540 230 953
667 1204 152 87 371 163 548 190 101 16 378 5 482 -18z m70 -456 c107 -29 223
-93 292 -161 106 -104 163 -263 148 -409 -19 -180 -82 -277 -222 -343 -54 -25
-68 -27 -184 -27 l-126 0 -96 48 c-54 26 -97 52 -97 56 0 5 19 5 43 -1 80 -18
165 9 193 64 36 69 5 200 -66 281 -116 132 -303 174 -455 102 -119 -56 -243
-209 -302 -373 -110 -304 -22 -655 227 -902 228 -226 588 -362 1015 -383 l50
-2 -65 -34 c-94 -49 -300 -174 -408 -247 l-93 -63 -140 70 c-335 168 -610 404
-800 687 -324 483 -287 950 107 1334 168 163 354 268 554 313 87 19 340 14
425 -10z m4035 -15 c348 -85 612 -377 697 -770 25 -119 25 -400 -1 -519 -99
-456 -388 -803 -851 -1022 -264 -125 -460 -173 -1070 -263 -165 -25 -361 -57
-435 -71 -404 -78 -841 -225 -1191 -400 l-110 -56 -102 10 c-56 6 -148 13
-205 17 -86 6 -100 9 -91 21 21 25 292 199 414 266 312 172 707 309 1085 377
63 11 225 34 360 50 871 107 1352 283 1691 620 213 211 325 447 360 753 42
373 -135 690 -449 804 -275 100 -519 58 -713 -125 -148 -139 -202 -306 -149
-461 29 -88 80 -163 167 -249 41 -41 72 -77 68 -80 -10 -10 -117 17 -175 45
-71 34 -176 140 -217 218 -113 216 -72 480 100 647 106 103 253 173 425 204
104 18 283 11 392 -16z m13 -189 c229 -59 398 -218 474 -446 25 -75 27 -91 27
-255 0 -158 -3 -185 -27 -273 -98 -363 -345 -650 -722 -839 -323 -162 -703
-259 -1295 -328 -427 -50 -768 -133 -1095 -267 -241 -98 -567 -283 -756 -429
l-57 -44 -172 0 -172 0 56 51 c174 159 429 358 583 455 115 73 320 172 461
223 131 47 353 110 757 215 889 230 1569 477 1875 680 326 219 439 517 299
795 -123 247 -426 365 -669 260 -195 -84 -211 -373 -32 -567 l49 -53 -39 -30
-38 -31 -37 30 c-136 109 -233 274 -233 396 0 53 39 161 77 217 88 128 236
226 388 259 59 13 209 3 298 -19z m-2363 -52 c30 -6 110 -36 177 -65 68 -30
130 -54 138 -54 29 0 15 -18 -17 -23 -51 -7 -155 11 -222 39 -99 42 -132 46
-288 41 -82 -3 -148 -1 -148 3 0 9 114 46 200 64 68 15 71 14 160 -5z m40
-119 c113 -49 192 -58 325 -35 l30 5 -30 -14 c-45 -21 -178 -39 -248 -33 -34
2 -119 23 -188 46 -132 43 -161 47 -250 32 -99 -17 -175 -23 -164 -13 23 21
86 35 195 42 169 11 253 3 330 -30z m2181 -45 c59 -21 105 -59 131 -108 36
-67 32 -178 -10 -282 -100 -252 -329 -461 -670 -610 -286 -125 -707 -236
-1677 -440 -773 -163 -887 -201 -1175 -393 -308 -206 -620 -488 -942 -850
l-47 -53 -153 -24 c-84 -14 -189 -31 -233 -39 -44 -8 -82 -12 -84 -10 -2 2 30
45 71 96 504 625 1250 1109 2135 1383 329 103 574 159 1153 266 700 129 811
156 956 228 44 22 100 57 126 78 25 21 83 65 127 97 109 79 230 207 266 281
55 111 31 207 -66 272 -120 80 -249 -15 -249 -185 0 -34 6 -77 14 -95 18 -44
69 -85 122 -99 24 -7 44 -15 43 -18 0 -3 -19 -20 -41 -39 -48 -42 -54 -39
-120 47 -91 120 -116 254 -66 363 30 65 75 104 151 130 65 23 179 24 238 4z
m-4115 -34 c83 -59 133 -142 141 -232 5 -54 4 -60 -25 -88 -28 -29 -36 -31
-99 -31 -79 0 -143 27 -177 73 -29 39 -27 117 3 177 30 57 88 130 105 130 7 0
31 -13 52 -29z m4365 -94 c41 -40 72 -85 101 -144 l43 -86 0 -126 c0 -125 0
-127 -37 -204 -116 -242 -335 -393 -878 -602 -355 -136 -716 -250 -1170 -369
-140 -37 -340 -90 -445 -117 -442 -117 -704 -224 -955 -392 -159 -107 -350
-259 -533 -424 l-89 -80 -116 -7 c-105 -6 -280 -22 -447 -42 l-60 -7 65 74
c116 133 412 422 545 533 227 189 423 323 590 402 176 84 286 113 930 249
1251 264 1643 383 1960 596 207 139 361 333 419 528 29 98 16 232 -28 280 -9
10 -16 21 -16 25 0 15 65 -32 121 -87z m-360 -10 c86 -58 102 -140 46 -242
-41 -72 -69 -89 -127 -76 -126 28 -163 203 -64 307 39 42 93 46 145 11z
m-2151 -52 c36 -19 54 -52 76 -141 16 -65 21 -73 94 -144 71 -69 79 -81 104
-157 22 -66 27 -102 29 -191 1 -61 -1 -108 -6 -105 -17 10 -48 87 -66 163 -11
44 -25 97 -32 118 -18 58 -111 174 -179 225 -72 55 -104 59 -167 23 -38 -22
-47 -23 -119 -15 -53 6 -88 16 -113 32 -20 13 -44 26 -54 30 -29 11 -117 -11
-169 -43 -36 -23 -60 -30 -96 -29 l-47 0 50 23 c28 12 83 53 123 90 72 66 73
67 120 61 48 -6 49 -6 126 49 21 15 31 16 57 7 43 -15 107 -13 144 4 40 18 90
18 125 0z m-398 -210 c76 -51 199 -60 272 -19 56 31 64 29 147 -39 101 -82
151 -169 185 -319 25 -113 94 -233 139 -244 30 -7 32 -20 5 -29 -30 -10 -55
10 -98 77 -60 96 -92 163 -128 272 -20 62 -43 109 -61 128 -30 33 -91 63 -147
74 -34 6 -40 2 -104 -60 -42 -40 -77 -66 -90 -66 -15 0 -34 16 -58 50 -20 28
-44 55 -54 60 -24 13 -75 13 -122 0 -30 -9 -47 -6 -105 16 -37 14 -81 29 -98
34 -33 9 -30 10 34 16 24 2 65 16 90 31 43 25 88 39 136 42 11 0 37 -10 57
-24z m-2020 -417 c90 -104 225 -191 373 -238 98 -31 296 -39 418 -16 152 29
324 98 445 179 64 44 66 36 16 -83 -40 -95 -191 -478 -219 -554 l-17 -48 -57
7 c-172 20 -372 80 -521 155 -279 140 -455 350 -520 623 -26 108 -25 119 7 72
14 -22 48 -66 75 -97z m6873 67 c90 -26 200 -77 390 -178 55 -30 111 -57 125
-61 14 -4 20 -10 14 -12 -15 -6 -89 20 -248 91 -260 114 -476 157 -616 121
-36 -9 -92 -29 -125 -45 -33 -16 -85 -36 -115 -46 -30 -9 -61 -19 -69 -22 -8
-3 -11 -1 -7 5 9 15 155 94 236 127 146 61 257 66 415 20z m-50 -69 c55 -14
140 -39 190 -56 90 -32 282 -116 299 -132 16 -13 -32 -9 -139 11 -55 11 -129
23 -165 26 -36 4 -126 24 -200 46 -82 23 -169 41 -222 45 -49 4 -88 10 -88 15
0 4 -7 14 -15 23 -13 13 -8 16 47 29 93 22 180 20 293 -7z m-56 -114 c62 -19
90 -32 81 -37 -8 -5 -70 -9 -139 -9 -114 -1 -132 2 -191 26 -36 15 -82 30
-102 33 -76 14 -24 23 114 20 124 -3 156 -8 237 -33z m-302 -492 c188 -48 196
-50 190 -57 -3 -2 -68 5 -144 17 -159 26 -307 23 -455 -8 -49 -10 -88 -15 -88
-11 0 12 138 77 186 88 79 18 150 12 311 -29z m13 -55 c47 -8 104 -16 127 -17
24 -2 43 -6 43 -10 0 -3 -26 -15 -59 -26 -54 -18 -65 -19 -142 -7 -249 39
-239 36 -239 56 0 17 9 19 93 19 50 0 130 -7 177 -15z m2065 -52 c181 -61 259
-346 180 -658 -46 -184 -118 -320 -225 -425 -56 -56 -63 -59 -154 -82 -53 -13
-96 -22 -96 -19 0 4 28 24 63 46 34 21 109 87 167 145 160 159 220 289 220
475 0 259 -136 455 -316 455 -102 0 -212 -69 -262 -164 -24 -45 -27 -62 -27
-146 0 -83 3 -102 28 -155 16 -34 47 -78 73 -101 25 -23 41 -45 36 -48 -15 -9
-123 66 -174 121 -69 75 -92 125 -92 203 -1 53 5 74 29 118 53 98 185 198 310
238 58 18 182 17 240 -3z m-2160 -19 l90 -18 -45 -13 c-25 -7 -75 -18 -113
-25 -62 -10 -77 -9 -180 16 -189 46 -180 42 -112 50 33 4 65 9 70 12 22 8 205
-5 290 -22z m-539 -79 c234 -59 459 -217 593 -413 53 -79 84 -143 117 -242 26
-80 28 -95 28 -265 1 -156 -2 -191 -22 -262 -70 -257 -193 -488 -390 -733 -97
-120 -317 -341 -446 -448 -553 -458 -1361 -789 -2105 -862 -117 -12 -215 -20
-217 -18 -2 2 72 20 164 41 189 41 604 153 828 222 509 158 872 342 1188 603
125 103 377 357 468 472 329 413 451 814 352 1156 -68 237 -239 422 -449 487
-90 27 -233 29 -320 3 -111 -33 -234 -104 -312 -182 -211 -206 -198 -483 34
-731 34 -37 61 -68 60 -69 -1 0 -44 -11 -95 -24 -140 -34 -222 -19 -312 57
-170 143 -214 536 -90 809 86 191 241 326 451 394 143 46 308 47 475 5z m2653
-33 c108 -66 180 -251 168 -428 -11 -153 -84 -291 -229 -430 -140 -134 -287
-223 -513 -310 -139 -54 -365 -157 -480 -219 -79 -43 -247 -113 -535 -222
-252 -96 -652 -243 -661 -243 -5 0 15 33 44 73 29 39 73 104 97 142 47 76 150
282 150 303 0 6 3 12 8 12 108 1 502 42 677 71 511 85 925 271 1191 534 73 72
99 106 130 170 37 74 39 84 39 170 0 72 -5 100 -24 142 -56 125 -184 176 -285
113 -46 -28 -71 -82 -71 -151 1 -68 33 -124 88 -154 l37 -19 -32 -33 -31 -32
-29 20 c-72 52 -125 180 -114 276 23 195 223 310 375 215z m-53 -151 c74 -45
122 -159 110 -260 -19 -161 -180 -337 -458 -503 -329 -196 -703 -301 -1257
-353 -220 -20 -285 -20 -277 1 26 67 64 279 66 367 0 13 137 8 348 -14 247
-25 432 -21 587 11 313 66 576 207 771 413 91 96 124 155 124 219 0 89 -76
131 -130 73 -45 -48 -26 -116 43 -151 l28 -15 -23 -28 -23 -28 -38 19 c-94 47
-106 189 -21 253 28 21 113 19 150 -4z m-3702 -134 c-75 -78 -209 -231 -303
-345 -24 -29 -85 -87 -135 -129 -228 -192 -409 -358 -750 -687 -137 -132 -246
-232 -243 -221 3 11 25 119 47 240 23 121 51 254 62 295 31 112 100 287 179
450 l70 146 203 32 c372 60 609 129 821 237 66 34 122 63 124 64 2 0 -32 -36
-75 -82z m1187 27 c205 -61 362 -225 441 -459 20 -62 23 -88 23 -240 0 -155
-2 -179 -28 -270 -31 -111 -121 -306 -193 -417 -96 -149 -203 -278 -374 -448
-265 -266 -458 -410 -738 -553 -312 -160 -644 -274 -1252 -431 -356 -92 -585
-136 -795 -152 l-90 -7 50 47 c79 74 427 352 570 456 280 203 559 370 789 473
67 30 254 104 416 165 356 133 491 190 675 286 406 210 640 438 751 733 52
137 71 290 50 393 -29 135 -118 260 -227 316 -71 36 -191 45 -270 19 -221 -72
-344 -277 -298 -497 24 -113 90 -210 173 -254 33 -17 50 -31 43 -35 -7 -4 -49
-19 -95 -34 l-84 -28 -26 20 c-52 38 -144 158 -185 242 -42 84 -42 85 -42 195
0 102 2 116 29 171 59 121 222 250 378 301 90 29 226 32 309 8z m41 -132 c69
-30 138 -105 184 -197 37 -75 39 -84 39 -174 0 -86 -3 -102 -31 -161 -62 -131
-195 -256 -402 -379 -184 -109 -384 -202 -862 -399 -496 -205 -691 -297 -908
-433 -132 -82 -354 -249 -502 -377 -63 -55 -116 -99 -117 -98 -1 1 4 26 12 56
30 113 40 253 26 376 -11 102 -11 118 3 139 36 54 145 161 236 229 296 223
688 365 1310 475 417 74 546 106 718 177 173 71 310 180 360 286 46 99 49 224
6 313 -55 116 -222 175 -369 130 -27 -8 -51 -12 -53 -10 -5 5 75 46 123 62 56
18 169 11 227 -15z m-1120 -39 c-38 -73 -57 -331 -33 -453 36 -181 118 -312
234 -372 29 -14 29 -15 -45 -27 -609 -106 -1022 -244 -1304 -437 -35 -24 -67
-44 -70 -44 -3 0 31 40 76 89 111 120 246 291 376 474 241 340 339 461 432
535 81 65 333 252 340 252 1 0 -1 -8 -6 -17z m1049 -40 c24 -11 57 -33 72 -49
52 -53 62 -81 62 -184 0 -84 -3 -102 -28 -152 -34 -69 -131 -162 -221 -213
l-66 -37 -56 17 c-101 29 -180 136 -204 278 -13 74 -4 141 29 205 67 131 271
198 412 135z m-2352 -182 c-61 -124 -150 -343 -178 -438 -11 -37 -43 -187 -71
-333 -28 -145 -52 -265 -54 -267 -1 -2 -17 17 -35 42 -202 282 -640 503 -1174
593 l-109 18 124 59 c328 155 721 284 1083 356 102 20 457 78 462 75 1 -1 -21
-48 -48 -105z m664 -273 c-11 -13 -84 -112 -161 -221 -161 -225 -257 -346
-388 -491 -81 -90 -250 -247 -289 -269 -11 -6 -22 8 -45 59 l-30 68 27 29
c130 135 886 846 902 847 3 0 -5 -10 -16 -22z m1899 -210 c-87 -182 -217 -330
-417 -473 -207 -148 -456 -268 -917 -440 -353 -133 -417 -159 -587 -244 -278
-140 -573 -333 -903 -593 -49 -38 -88 -66 -88 -64 0 2 16 28 36 58 19 29 51
86 70 125 29 59 52 88 122 152 295 270 560 456 867 609 177 89 258 124 640
282 622 256 872 384 1064 545 47 40 102 93 121 119 19 26 36 42 38 37 2 -6
-19 -57 -46 -113z m2736 102 c207 -22 360 -67 559 -166 121 -59 138 -71 203
-142 429 -463 523 -998 250 -1414 -109 -166 -279 -315 -455 -399 -134 -64
-226 -83 -368 -77 -97 4 -124 10 -202 39 -50 19 -124 57 -165 84 -96 63 -214
183 -263 266 -34 59 -93 216 -84 226 3 2 20 -20 38 -49 210 -327 571 -464 853
-322 195 98 349 331 412 624 28 129 26 343 -3 435 -82 262 -358 452 -793 547
-92 20 -133 22 -330 22 -222 0 -227 0 -343 -32 -149 -40 -307 -102 -464 -180
-274 -138 -475 -272 -1085 -728 -664 -497 -798 -587 -1084 -726 -257 -125
-469 -187 -774 -225 -189 -24 -734 -24 -940 0 -80 9 -149 17 -155 18 -26 3 46
17 89 18 63 1 261 41 452 91 632 165 1190 449 1617 821 86 76 107 89 209 129
168 66 525 247 863 438 570 320 762 418 1043 531 369 147 649 199 920 171z
m-7268 -10 c80 -6 186 -15 237 -21 l92 -11 -23 -47 c-13 -25 -26 -57 -29 -71
l-6 -25 -193 0 c-417 -1 -828 -85 -1443 -295 -190 -65 -558 -205 -695 -265
-58 -25 -106 -41 -108 -35 -5 14 -57 40 -81 40 -11 0 -28 14 -40 34 -29 47
-70 62 -123 47 -38 -12 -41 -11 -56 11 -34 49 -64 68 -104 68 -22 0 -48 -5
-58 -10 -15 -8 -21 -6 -29 9 -17 31 -64 45 -106 31 -30 -10 -38 -9 -48 3 -36
43 -104 60 -148 36 -16 -8 -26 -5 -55 20 -19 17 -40 31 -47 31 -34 1 42 24
278 84 433 109 837 193 1240 260 351 58 576 83 965 109 112 8 448 6 580 -3z
m788 -130 c310 -91 543 -220 717 -396 198 -200 296 -439 297 -719 1 -307 -123
-578 -376 -823 -147 -141 -309 -246 -505 -326 -69 -28 -70 -26 -27 42 19 30
33 41 60 46 20 4 76 27 124 51 144 72 272 204 349 360 147 296 151 707 9 1002
-110 228 -319 439 -552 556 -83 42 -245 100 -326 116 -46 10 -58 16 -58 32 0
10 -9 42 -20 71 -11 29 -20 56 -20 59 0 10 207 -35 328 -71z m-539 -85 c16
-17 -111 -198 -190 -271 l-34 -32 -160 -5 c-184 -7 -298 -28 -483 -89 -135
-45 -389 -165 -520 -246 -47 -29 -95 -52 -111 -52 -14 0 -36 -7 -49 -15 -18
-13 -28 -14 -61 -4 -45 13 -86 2 -116 -31 -12 -14 -26 -17 -55 -13 -44 6 -84
-13 -94 -45 -5 -16 -14 -18 -61 -14 -51 4 -57 2 -83 -26 l-28 -30 -25 19 c-38
31 -92 57 -131 64 -30 6 -37 12 -42 37 -16 79 -61 128 -119 128 -14 0 -28 7
-31 15 -6 18 2 22 234 115 867 349 1564 521 2039 505 63 -3 116 -7 120 -10z
m366 -55 c352 -96 638 -327 787 -636 164 -342 136 -778 -70 -1081 -63 -92
-178 -194 -275 -242 -83 -41 -132 -55 -91 -26 25 17 39 96 24 126 -12 21 -40
25 -56 9 -7 -7 -22 -6 -48 5 l-37 16 48 38 c248 196 365 569 269 856 -53 158
-161 299 -321 418 -94 70 -264 154 -387 192 -49 15 -88 28 -88 30 0 1 22 50
50 108 27 58 58 130 67 161 13 40 22 54 33 51 8 -2 51 -13 95 -25z m6517 -85
c403 -53 728 -229 843 -455 80 -158 80 -403 1 -638 -117 -343 -354 -541 -621
-519 -223 19 -455 188 -575 418 -22 42 -40 87 -40 99 0 30 21 100 30 100 4 0
16 -12 26 -27 60 -92 212 -216 311 -253 301 -113 674 133 722 476 34 235 -111
442 -392 561 -124 52 -235 77 -352 76 -163 0 -267 -36 -594 -207 -296 -155
-506 -291 -705 -457 -50 -42 -206 -188 -346 -325 -329 -322 -450 -416 -687
-537 -335 -171 -701 -273 -1277 -357 -352 -51 -909 -88 -1178 -77 l-128 5 -47
52 c-67 75 -176 211 -172 215 2 2 27 -1 54 -6 151 -26 348 -41 601 -46 849
-17 1272 118 1989 636 50 35 266 196 480 356 215 160 442 328 506 373 428 302
840 496 1145 541 93 14 290 12 406 -4z m1201 -190 c192 -220 333 -490 377
-725 19 -100 15 -289 -8 -400 -88 -423 -423 -758 -851 -850 -348 -75 -607 7
-926 294 -203 182 -357 403 -395 565 -21 91 7 232 50 246 27 9 98 10 106 3 3
-4 10 -46 15 -95 30 -284 188 -501 466 -642 154 -77 350 -97 518 -52 232 62
476 246 622 468 112 172 157 325 157 538 -1 196 -37 343 -133 533 -44 88 -148
247 -180 276 -12 11 -21 23 -21 29 0 17 122 -97 203 -188z m-8033 8 c0 -11
-67 -124 -101 -169 -43 -59 -133 -123 -214 -153 -91 -34 -193 -89 -235 -127
-27 -24 -47 -56 -61 -95 -21 -57 -48 -87 -69 -74 -5 3 -19 1 -30 -5 -16 -9
-21 -19 -18 -43 3 -29 0 -32 -40 -42 -46 -11 -62 -27 -62 -63 0 -13 -13 -37
-29 -53 -23 -22 -39 -29 -69 -29 -50 0 -63 -16 -60 -71 3 -41 2 -43 -37 -58
-50 -19 -57 -28 -50 -67 6 -35 -13 -58 -58 -69 -18 -5 -29 -15 -32 -31 -3 -13
-7 -35 -10 -49 -8 -39 -56 -86 -95 -94 -28 -5 -36 -12 -38 -32 -4 -31 37 -66
122 -103 55 -24 59 -25 97 -9 37 15 43 14 81 -3 23 -10 44 -28 49 -42 7 -18
15 -23 32 -19 91 21 86 21 98 -7 14 -31 41 -41 69 -26 38 21 72 9 85 -30 14
-40 36 -48 70 -26 37 24 65 21 65 -8 0 -38 24 -51 69 -37 51 15 49 16 66 -25
l15 -36 49 7 c44 6 51 4 61 -14 9 -17 20 -21 65 -21 31 0 76 -9 105 -20 32
-13 74 -20 115 -20 55 0 66 -3 75 -21 7 -11 10 -22 8 -24 -2 -2 -40 -22 -83
-44 -122 -60 -199 -83 -297 -89 -150 -8 -277 31 -639 196 -299 136 -453 175
-694 176 -77 1 -152 -2 -166 -6 -25 -7 -27 -5 -39 38 -11 39 -11 54 4 106 47
168 123 274 255 354 115 70 182 126 268 221 158 177 220 237 323 314 128 97
286 177 435 220 208 60 335 134 455 266 36 41 69 69 77 66 7 -3 13 -7 13 -10z
m5185 -12 c-12 -12 -467 -265 -635 -353 -113 -60 -430 -208 -445 -208 -3 0 43
54 103 121 l109 121 323 119 c179 66 372 139 430 163 111 46 130 52 115 37z
m-5495 -10 c0 -23 -188 -88 -380 -131 -108 -24 -157 -41 -246 -85 -84 -42
-118 -54 -137 -50 -32 8 -89 -10 -112 -35 -13 -15 -22 -17 -36 -10 -29 16 -71
12 -108 -11 -25 -15 -39 -18 -59 -11 -26 8 -24 10 43 49 248 144 527 245 763
278 112 15 272 19 272 6z m7282 -15 c236 -60 417 -187 491 -346 131 -278 -100
-646 -439 -700 -145 -23 -279 33 -419 174 -123 124 -125 130 -91 208 14 35 48
94 74 132 45 66 116 135 127 124 3 -3 10 -34 15 -69 15 -96 73 -204 134 -251
58 -43 128 -63 195 -55 108 13 226 81 285 165 43 61 48 148 13 219 -71 140
-247 216 -448 193 -95 -11 -152 -27 -267 -76 -236 -101 -372 -193 -902 -613
-414 -327 -751 -496 -1267 -635 -51 -13 -93 -22 -93 -18 1 4 46 29 101 56 113
56 260 150 364 234 38 32 184 169 323 305 335 327 491 454 769 624 118 72 475
259 563 294 164 65 309 76 472 35z m-6782 -69 c191 -66 347 -164 468 -292 124
-132 180 -244 204 -409 35 -247 -100 -555 -312 -711 -43 -32 -58 -37 -122 -41
-95 -7 -150 -19 -220 -51 -53 -23 -61 -25 -105 -13 -199 49 -331 260 -308 490
9 83 32 136 81 185 135 132 397 138 528 11 24 -24 52 -58 61 -76 17 -32 17
-33 -24 -115 -22 -45 -58 -101 -79 -125 l-39 -44 -49 43 c-91 81 -183 102
-264 61 -79 -40 -115 -145 -70 -203 83 -105 260 -68 415 87 76 76 121 151 155
259 18 55 21 86 18 165 -3 91 -6 104 -42 178 -46 93 -133 185 -214 227 -133
69 -282 113 -399 119 -35 1 -63 5 -63 8 0 3 13 13 29 23 46 27 146 140 182
206 38 69 27 68 169 18z m-3094 -122 c98 -50 109 -52 158 -28 l35 16 49 -41
c35 -30 59 -42 81 -42 25 0 32 -5 37 -27 4 -16 28 -51 55 -78 44 -46 49 -54
43 -84 -8 -38 -41 -56 -76 -42 -13 5 -43 30 -68 56 -64 65 -239 161 -351 191
-88 23 -169 58 -169 71 0 17 58 52 86 53 18 0 69 -19 120 -45z m10071 -80
c102 -45 183 -148 183 -229 -1 -102 -126 -216 -270 -247 -97 -21 -201 25 -257
113 -35 57 -63 148 -63 209 0 47 2 51 33 64 55 23 91 30 82 16 -23 -38 59
-177 125 -213 105 -57 250 49 220 161 -38 141 -253 160 -484 44 -122 -61 -211
-180 -296 -396 l-23 -58 -42 7 c-44 6 -146 -17 -173 -39 -7 -5 -49 -25 -92
-43 -229 -93 -436 -234 -847 -575 -269 -223 -374 -304 -528 -406 -485 -323
-926 -462 -1516 -480 -234 -7 -396 5 -593 43 -282 55 -476 148 -680 327 l-38
34 318 6 c717 14 1406 117 1884 282 52 18 136 41 185 50 392 72 844 247 1143
444 139 91 237 165 507 380 322 257 537 395 739 477 130 52 194 64 316 61 90
-3 114 -8 167 -32z m-81 -46 c57 -15 104 -66 104 -113 0 -44 -42 -90 -98 -107
-39 -11 -44 -10 -82 15 -74 49 -125 163 -87 194 26 21 101 26 163 11z m-7117
-59 c28 -5 77 -17 109 -27 l57 -17 -53 -8 c-124 -19 -234 -79 -322 -175 -138
-151 -215 -381 -191 -573 19 -147 65 -236 181 -352 77 -78 84 -88 62 -88 -14
0 -36 10 -49 22 -15 14 -38 22 -63 24 -28 1 -48 9 -67 28 -19 19 -36 26 -64
26 -27 0 -41 5 -48 19 -14 25 -58 42 -105 39 l-39 -3 -18 60 c-31 102 -42 199
-36 313 7 138 27 213 90 342 45 93 61 116 146 200 72 71 116 106 176 137 87
46 132 53 234 33z m291 -107 c19 -10 67 -49 106 -87 96 -96 125 -160 132 -283
3 -51 1 -93 -4 -93 -5 0 -19 16 -32 35 -29 46 -112 99 -186 120 -80 23 -219
16 -298 -14 -72 -28 -158 -105 -188 -168 -30 -65 -38 -212 -16 -306 38 -160
148 -288 284 -328 23 -7 42 -15 42 -19 0 -8 -70 -30 -95 -30 -10 0 -43 14 -74
31 -167 94 -275 227 -317 391 -23 90 -15 237 20 343 69 213 241 388 416 425
59 12 165 3 210 -17z m-870 -168 c0 -3 -13 -26 -29 -52 -16 -27 -46 -83 -67
-127 -46 -97 -89 -139 -204 -200 l-90 -47 0 29 c0 23 6 32 30 42 39 16 52 33
59 76 5 31 12 38 46 50 46 15 93 63 101 103 5 21 15 30 47 42 28 9 46 24 57
44 8 17 20 33 25 37 11 9 25 10 25 3z m-36 -139 c-19 -46 -42 -124 -52 -173
l-18 -88 -144 -32 c-133 -30 -207 -38 -155 -18 11 4 62 27 113 52 109 53 178
116 206 186 18 48 75 157 81 157 2 0 -12 -38 -31 -84z m-74 -386 l0 -69 -32
-5 c-18 -3 -80 -10 -138 -16 -118 -12 -246 -29 -272 -36 -12 -3 -8 4 11 25 16
17 34 44 41 60 11 27 20 32 84 45 39 9 118 27 176 40 58 13 111 24 118 25 8 1
12 -19 12 -69z m896 -15 c27 -14 65 -40 83 -59 l34 -35 -24 -20 c-56 -46 -141
-81 -196 -81 -49 0 -59 4 -89 34 -19 19 -34 42 -34 51 0 33 33 87 69 111 46
31 93 31 157 -1z m-1720 -410 c27 -8 70 -27 95 -43 41 -27 48 -36 69 -103 26
-80 61 -126 142 -185 55 -40 76 -76 108 -181 18 -62 20 -79 11 -128 -6 -32 -8
-68 -5 -80 5 -19 0 -23 -27 -29 -40 -8 -44 -4 -69 68 -11 32 -39 86 -63 119
-24 34 -60 93 -81 132 -65 119 -137 215 -228 303 -49 47 -88 92 -88 101 0 42
50 52 136 26z m3158 -108 c86 -50 112 -73 84 -74 -28 -1 -106 -27 -158 -53
-77 -39 -152 -100 -185 -152 l-28 -43 -76 78 c-42 44 -98 95 -125 115 l-49 36
61 28 c120 53 311 113 377 117 6 0 50 -23 99 -52z m-1175 -66 c-1 -3 -31 -34
-68 -68 -66 -62 -68 -63 -139 -69 -40 -4 -72 -4 -72 0 0 3 33 37 73 75 l72 70
68 -1 c37 -1 66 -4 66 -7z m1422 -277 c-135 -34 -236 -91 -343 -192 -37 -35
-58 -49 -58 -39 0 9 -23 62 -52 118 l-51 101 18 35 c45 83 209 188 315 201
l52 7 103 -104 103 -105 -87 -22z m3491 167 c48 -11 114 -31 145 -43 119 -48
251 -154 330 -265 110 -155 111 -279 3 -377 -73 -66 -160 -85 -221 -49 -38 23
-37 28 9 28 21 0 51 9 66 19 56 36 79 146 51 241 -30 105 -135 185 -330 251
-64 22 -103 28 -200 32 -203 7 -405 -31 -823 -152 -364 -107 -608 -159 -791
-170 -130 -7 -110 7 42 30 388 61 728 192 1067 413 104 67 125 71 380 66 138
-3 207 -9 272 -24z m-4722 -40 c50 -21 121 -57 160 -80 73 -44 220 -156 220
-169 0 -8 -202 -89 -235 -95 -11 -2 -56 14 -100 35 -44 21 -110 48 -148 59
-60 18 -67 22 -62 42 2 12 10 51 16 87 9 57 45 160 55 160 2 0 44 -18 94 -39z
m-762 -45 c-7 -14 -30 -38 -52 -55 -32 -26 -49 -31 -97 -33 -132 -4 -123 -7
-136 35 -15 46 -9 61 17 47 11 -6 52 -13 92 -16 66 -6 79 -4 123 19 63 33 69
33 53 3z m381 -32 c-16 -31 -31 -71 -35 -89 l-6 -33 -136 5 c-76 3 -138 6
-139 7 -1 1 40 38 90 83 l92 81 81 1 81 1 -28 -56z m356 -237 l80 -31 -35 -8
c-19 -5 -69 -18 -111 -29 -51 -14 -88 -18 -112 -14 -20 4 -37 9 -37 12 0 2 14
30 32 62 l32 58 36 -9 c19 -6 71 -24 115 -41z m-854 -7 c33 -21 96 -52 140
-67 43 -15 79 -31 79 -34 0 -4 -10 -9 -22 -12 -13 -2 -185 -47 -383 -100 -199
-52 -370 -97 -380 -99 -17 -2 -21 5 -26 50 -4 29 -18 75 -31 102 -14 28 -23
52 -20 55 2 2 17 -2 33 -10 34 -18 73 -19 102 -3 12 6 40 10 63 9 32 -2 48 4
71 23 22 19 42 26 72 26 30 0 48 6 64 23 20 19 28 21 65 13 51 -11 89 5 98 41
4 13 8 23 10 23 2 0 31 -18 65 -40z"/>
<path d="M2865 2298 c-16 -6 -46 -22 -65 -37 -19 -15 -77 -56 -129 -90 -112
-76 -167 -124 -187 -165 -9 -17 -54 -67 -101 -111 l-86 -81 21 -47 c22 -49 47
-66 118 -81 29 -6 39 -1 106 58 62 54 75 72 86 112 10 36 24 57 60 88 59 51
227 221 270 274 34 42 39 61 20 80 -14 14 -71 14 -113 0z m105 -24 c0 -8 -17
-36 -37 -61 -40 -47 -201 -206 -265 -262 -26 -23 -43 -49 -55 -88 -15 -46 -26
-62 -68 -93 -27 -20 -56 -44 -64 -53 -17 -21 -41 -21 -86 -3 -32 14 -75 66
-75 93 0 6 33 39 74 74 44 36 85 81 100 108 13 26 35 56 48 68 28 26 267 191
311 215 42 23 117 24 117 2z"/>
<path d="M2210 1714 c-33 -23 -239 -204 -267 -235 -23 -26 -77 -145 -87 -194
-12 -58 -5 -60 195 -63 175 -2 183 -3 256 -32 41 -17 83 -30 93 -30 23 0 59
56 52 82 -6 23 -54 61 -105 82 -31 12 -42 26 -62 71 -33 73 -32 91 5 110 35
18 58 59 66 118 6 42 4 46 -28 71 -47 35 -86 42 -118 20z m97 -26 c34 -20 35
-23 30 -71 -4 -44 -10 -55 -51 -92 -25 -24 -46 -48 -46 -54 0 -19 41 -116 58
-134 9 -10 34 -26 56 -36 58 -26 91 -64 77 -88 -21 -41 -33 -42 -111 -10 -72
30 -81 32 -260 37 -161 4 -185 7 -188 21 -5 26 55 171 85 207 56 65 268 241
292 241 13 1 39 -9 58 -21z"/>
<path d="M2546 1229 c-30 -35 -34 -79 -8 -101 25 -22 236 -132 311 -162 36
-14 74 -35 86 -46 26 -24 211 -89 236 -83 36 10 62 51 67 106 4 51 3 54 -32
81 -51 39 -96 55 -179 66 -60 7 -74 13 -91 35 -25 36 -53 45 -106 35 -42 -8
-47 -6 -82 25 -31 29 -42 33 -71 28 -30 -4 -38 -1 -52 21 -23 34 -47 33 -79
-5z m123 -29 c24 0 44 -10 72 -34 34 -32 41 -34 71 -25 55 15 76 11 108 -25
27 -29 38 -34 95 -39 76 -7 152 -38 188 -75 24 -25 25 -30 16 -72 -13 -58 -36
-83 -69 -77 -51 10 -175 58 -205 80 -16 13 -55 34 -85 46 -95 40 -321 163
-327 177 -3 8 7 33 22 55 l27 41 27 -26 c18 -17 38 -26 60 -26z"/>
<path d="M3287 1013 c-11 -18 -37 -119 -37 -143 0 -14 6 -35 14 -45 14 -19 16
-19 127 -1 143 24 229 60 203 86 -5 5 -38 17 -74 26 -36 9 -95 32 -131 50 -65
34 -94 41 -102 27z m111 -47 c37 -18 91 -39 120 -46 28 -6 52 -16 52 -22 0
-14 -68 -39 -130 -48 -30 -5 -77 -14 -104 -20 -40 -11 -50 -11 -57 1 -12 19
-11 69 2 110 6 19 12 40 15 47 6 19 30 14 102 -22z"/>
<path d="M71 2695 c-18 -8 -42 -15 -52 -15 -11 0 -19 -5 -19 -11 0 -10 10 -9
84 13 34 11 43 9 75 -9 24 -14 46 -19 64 -16 19 4 34 -1 48 -13 18 -16 34 -19
105 -16 83 3 84 2 94 -23 11 -28 3 -52 -24 -74 -12 -10 -26 -9 -73 3 -165 45
-397 81 -363 57 8 -6 30 -11 48 -11 38 0 249 -42 324 -65 72 -21 108 4 108 74
0 50 -19 59 -104 54 -67 -4 -79 -2 -103 17 -21 16 -35 20 -61 15 -24 -4 -39
-1 -59 14 -30 25 -46 25 -92 6z"/>
<path d="M0 2448 c0 -5 27 -8 59 -8 39 0 85 -9 130 -25 38 -14 118 -34 177
-45 118 -21 143 -33 101 -49 -18 -7 -35 -27 -49 -58 -13 -26 -35 -54 -50 -62
-26 -15 -29 -14 -63 19 -19 18 -35 39 -35 45 0 19 -48 78 -80 98 -26 16 -41
18 -110 12 -44 -4 -80 -11 -80 -17 0 -8 104 -3 136 7 30 9 117 -74 125 -119 2
-10 21 -32 41 -49 34 -28 39 -29 68 -17 21 9 39 29 56 61 20 40 39 59 82 85 1
0 0 8 -4 17 -7 19 -46 31 -153 47 -41 6 -113 24 -160 41 -62 22 -99 29 -138
27 -29 -2 -53 -6 -53 -10z"/>
<path d="M2720 2393 c-8 -3 -51 -22 -95 -43 -237 -115 -278 -131 -381 -145
-56 -8 -113 -19 -128 -24 -14 -6 -65 -17 -113 -26 -48 -8 -123 -23 -167 -32
-134 -30 -155 -84 -88 -224 39 -82 91 -142 145 -168 l42 -20 73 21 c62 18 84
31 146 87 41 36 136 133 212 215 161 174 247 248 317 273 53 19 60 28 55 66
-2 16 -8 22 -18 20z m8 -35 c-3 -7 -38 -29 -79 -50 -62 -31 -96 -59 -204 -170
-362 -370 -352 -361 -436 -387 l-76 -24 -41 23 c-51 29 -106 101 -143 190 -30
71 -30 71 -12 108 15 31 26 39 76 53 32 10 96 22 143 29 46 6 113 19 147 30
34 10 103 23 152 30 81 10 107 19 265 94 172 82 216 98 208 74z"/>
<path d="M565 2311 c-78 -35 -114 -96 -135 -225 -7 -47 -6 -52 22 -79 26 -26
34 -29 75 -24 40 4 49 2 69 -20 13 -14 26 -34 29 -44 4 -11 12 -19 19 -19 16
0 49 -36 70 -77 13 -26 23 -32 53 -35 31 -2 42 -10 66 -45 24 -37 33 -43 64
-43 50 0 96 25 116 63 20 37 83 82 140 99 24 7 37 17 37 29 0 45 -155 199
-302 300 -80 55 -246 139 -273 139 -5 0 -28 -9 -50 -19z m170 -50 c55 -28 148
-86 206 -130 103 -78 229 -208 229 -236 0 -7 -13 -16 -29 -20 -47 -10 -118
-61 -145 -104 -38 -60 -126 -79 -141 -31 -9 28 -63 70 -89 70 -17 0 -32 14
-54 50 -17 28 -37 50 -45 50 -7 0 -27 20 -45 45 -31 44 -33 45 -86 45 -38 0
-61 6 -77 19 l-23 18 18 86 c16 76 22 89 60 125 48 46 73 61 101 62 11 0 65
-22 120 -49z"/>
<path d="M96 2305 c-11 -8 -37 -15 -59 -15 -38 0 -38 0 -35 -37 3 -36 5 -38
35 -37 27 2 33 -3 43 -29 15 -44 49 -77 80 -77 20 0 29 -7 38 -33 7 -18 12
-35 12 -38 0 -2 -47 -29 -105 -59 -72 -38 -105 -60 -105 -72 0 -10 2 -18 4
-18 2 0 56 27 118 60 97 51 119 59 150 54 28 -5 38 -12 43 -31 3 -13 26 -44
50 -69 35 -35 51 -44 79 -44 31 0 35 -3 41 -32 9 -42 42 -78 72 -78 13 0 23
-4 23 -10 0 -5 14 -25 31 -45 24 -27 39 -35 65 -35 23 0 34 -5 34 -14 0 -26
44 -67 79 -74 28 -6 36 -14 52 -57 l20 -50 -33 -27 c-18 -14 -206 -161 -416
-325 -211 -164 -390 -303 -399 -310 -8 -6 -13 -20 -11 -31 2 -16 31 2 163 107
88 69 286 223 439 342 l280 216 38 -25 38 -25 -36 -26 c-42 -30 -112 -121
-144 -185 -15 -32 -28 -46 -41 -46 -50 0 -109 -52 -128 -112 -7 -21 -21 -40
-31 -43 -27 -9 -60 -53 -60 -81 0 -13 -6 -24 -13 -24 -25 0 -70 -58 -72 -92
-1 -22 -13 -44 -34 -65 -24 -25 -31 -40 -31 -72 0 -30 -7 -47 -26 -66 -22 -22
-25 -33 -22 -72 3 -39 -1 -51 -20 -70 -16 -16 -23 -32 -20 -48 4 -18 -4 -33
-31 -58 -46 -44 -182 -150 -221 -173 -25 -15 -43 -54 -24 -54 9 0 96 60 166
117 37 29 69 53 71 53 3 0 10 -13 17 -29 10 -25 9 -33 -6 -55 -17 -28 -44
-124 -44 -163 0 -20 5 -23 39 -23 l38 0 6 54 c7 66 30 114 62 126 35 13 34 56
0 72 -33 15 -27 32 13 36 19 2 36 11 42 23 9 16 5 24 -21 48 l-32 29 42 13
c69 21 77 55 19 85 -45 23 -32 38 50 60 19 5 14 38 -9 68 -28 36 -11 60 37 51
22 -4 37 -1 48 10 22 22 20 31 -9 57 -14 12 -25 27 -25 34 0 22 33 39 74 39
37 0 41 3 44 26 2 14 -4 31 -12 39 -26 20 -18 30 22 27 l37 -2 3 55 c2 43 9
61 29 82 23 24 32 27 64 22 36 -6 39 -4 49 22 57 155 153 252 293 298 13 4 17
14 15 33 -3 26 -7 29 -62 35 -105 13 -172 75 -160 148 7 45 -4 54 -62 51 -49
-2 -59 8 -59 64 0 44 6 42 -90 33 l-30 -3 0 55 c0 49 -2 55 -22 58 -12 2 -33
-4 -47 -13 -24 -16 -26 -16 -32 -1 -4 9 -4 32 -1 51 7 42 -15 70 -47 60 -61
-20 -72 -18 -104 20 -28 31 -31 41 -26 75 8 47 -9 59 -62 42 -30 -9 -36 -8
-49 11 -8 12 -15 33 -15 48 0 37 -21 52 -64 44 -32 -6 -36 -5 -42 19 -3 15 -1
40 6 56 21 50 -20 78 -64 45z"/>
<path d="M1250 2157 c-20 -10 -26 -21 -28 -53 -3 -38 4 -50 74 -145 108 -145
134 -188 134 -223 0 -25 12 -41 62 -86 34 -30 103 -98 154 -150 l92 -95 26 24
c14 14 26 30 26 37 0 7 16 42 35 79 l36 67 -35 72 c-22 44 -60 100 -99 142
-35 38 -76 88 -91 112 -24 39 -30 42 -69 42 -52 0 -53 1 -104 74 -70 99 -147
136 -213 103z m121 -30 c18 -12 47 -41 64 -63 16 -22 39 -53 50 -68 16 -21 31
-28 72 -33 38 -4 54 -11 58 -23 3 -10 40 -56 81 -102 44 -48 89 -112 110 -154
l35 -70 -40 -84 c-23 -46 -45 -88 -51 -94 -6 -6 -36 19 -87 73 -42 46 -107
108 -145 137 -53 43 -68 61 -68 81 0 41 -32 97 -125 223 -47 63 -88 125 -92
138 -14 58 73 83 138 39z"/>
<path d="M1105 1801 c-104 -65 -160 -175 -125 -242 18 -32 110 -79 156 -79 44
0 51 -6 161 -138 41 -49 199 -166 269 -199 31 -15 40 -16 92 -2 66 16 72 29
46 97 -13 35 -60 90 -204 237 -138 142 -193 205 -209 241 -33 74 -66 104 -115
104 -23 0 -54 -9 -71 -19z m117 -11 c14 -10 35 -43 48 -72 18 -42 61 -92 204
-238 217 -221 264 -296 200 -320 -60 -23 -94 -13 -197 57 -93 64 -158 124
-237 222 -31 39 -41 44 -95 53 -33 5 -79 21 -105 37 -40 25 -45 32 -48 68 -4
59 18 103 79 155 77 64 108 72 151 38z"/>
<path d="M1126 1339 c-38 -16 -89 -41 -113 -56 -44 -28 -114 -117 -128 -163
-10 -34 -43 -68 -87 -91 -41 -21 -58 -45 -58 -81 0 -15 -15 -39 -39 -62 -24
-23 -42 -52 -46 -72 -3 -20 -25 -55 -50 -85 -25 -27 -45 -57 -45 -67 0 -9 11
-40 24 -69 26 -56 47 -71 144 -104 l55 -19 41 24 c56 33 117 94 181 180 90
123 131 153 385 289 92 49 193 124 185 137 -2 4 -43 29 -90 55 -52 29 -122 82
-176 132 -50 46 -96 83 -102 82 -7 0 -43 -14 -81 -30z m177 -68 c47 -44 122
-100 166 -126 45 -26 81 -50 81 -53 -1 -15 -93 -73 -228 -147 -196 -106 -247
-146 -334 -262 -40 -53 -100 -119 -133 -146 -69 -55 -82 -56 -175 -9 -40 19
-61 38 -77 67 -32 57 -29 79 18 129 22 25 45 62 51 83 6 22 26 53 49 74 28 26
39 44 39 65 0 39 8 50 60 77 36 18 51 35 76 84 40 78 86 136 130 164 40 24
163 78 180 79 7 0 50 -36 97 -79z"/>
<path d="M2310 1057 c-30 -16 -30 -49 0 -108 19 -36 77 -89 113 -102 11 -4 43
-59 78 -134 33 -71 74 -149 90 -175 l30 -46 67 -4 c37 -3 81 -11 99 -18 28
-12 39 -12 80 2 26 9 68 19 93 23 24 3 69 20 100 38 30 18 62 32 70 32 9 0 15
10 15 25 1 14 7 40 14 58 12 28 11 35 -3 57 -19 29 -12 26 -211 100 -82 30
-184 75 -225 98 -98 57 -311 155 -353 162 -18 3 -43 0 -57 -8z m260 -97 c91
-46 190 -95 220 -110 30 -15 114 -49 185 -75 74 -26 140 -57 154 -70 l25 -24
-20 -48 c-16 -40 -29 -54 -82 -84 -41 -24 -81 -38 -118 -43 -30 -3 -66 -13
-79 -22 -21 -14 -27 -13 -62 1 -21 9 -65 18 -98 20 -75 5 -75 6 -170 203 -49
100 -79 152 -90 152 -20 0 -105 78 -116 108 -21 54 -21 70 -2 75 43 13 98 -5
253 -83z"/>
<path d="M1725 1009 c-64 -66 -144 -115 -222 -136 -40 -11 -97 -35 -128 -54
-66 -40 -285 -220 -397 -328 l-78 -74 0 -56 c0 -98 83 -241 141 -241 9 0 38 9
63 19 31 14 57 18 82 14 33 -5 40 -2 74 35 41 44 92 74 158 91 23 7 58 26 77
43 28 24 41 29 68 25 25 -4 46 3 100 35 46 28 84 43 116 46 42 4 51 8 65 36 8
17 26 44 38 59 58 73 1 413 -84 505 -12 12 -24 22 -28 22 -3 0 -24 -18 -45
-41z m75 -11 c28 -46 76 -199 89 -284 13 -84 3 -155 -27 -187 -11 -12 -27 -37
-36 -55 -13 -26 -21 -32 -37 -27 -25 8 -67 -8 -133 -48 -31 -20 -64 -32 -92
-33 -30 -2 -54 -11 -81 -32 -21 -17 -54 -33 -73 -37 -55 -11 -111 -44 -156
-91 -38 -39 -45 -42 -81 -37 -26 3 -50 0 -71 -11 -45 -23 -79 -20 -107 10 -36
39 -75 128 -82 186 l-6 50 75 72 c115 109 331 287 400 329 35 21 81 42 103 48
91 25 130 44 201 100 41 33 74 64 74 69 0 21 21 9 40 -22z"/>
<path d="M1974 824 c-3 -19 -4 -84 0 -142 16 -264 24 -338 42 -381 l18 -44
-33 -62 c-32 -60 -33 -62 -17 -93 21 -41 46 -41 93 2 21 18 58 42 83 53 59 26
97 72 105 127 7 43 -9 151 -25 171 -4 6 -47 84 -95 175 -47 91 -96 180 -108
197 -30 44 -54 43 -63 -3z m74 -50 c19 -32 63 -115 99 -184 36 -69 72 -135 80
-147 8 -12 17 -55 19 -95 7 -96 -11 -132 -84 -170 -29 -15 -69 -41 -90 -58
-44 -36 -59 -38 -73 -6 -9 20 -7 31 15 68 30 51 33 93 11 145 -9 21 -18 81
-21 138 -2 55 -9 127 -14 160 -17 105 -10 220 14 212 6 -2 26 -30 44 -63z"/>
<path d="M515 566 c-9 -13 -22 -55 -30 -95 -9 -39 -27 -97 -41 -128 -14 -32
-29 -78 -35 -102 -5 -24 -25 -69 -44 -100 -36 -58 -57 -141 -36 -141 6 0 11
11 11 25 0 32 19 79 54 129 14 21 26 48 26 59 0 11 15 58 34 106 19 47 40 113
46 146 7 33 18 71 25 84 12 23 12 23 34 -22 24 -49 67 -77 120 -77 32 0 51
-22 51 -60 0 -12 -24 -49 -53 -82 -38 -42 -59 -77 -72 -116 -9 -32 -30 -87
-46 -125 -15 -37 -24 -67 -19 -67 12 0 32 46 71 159 24 69 38 94 84 142 43 44
55 65 55 89 0 43 -39 80 -83 80 -44 0 -80 29 -101 80 -18 46 -29 50 -51 16z"/>
<path d="M1861 427 c-5 -13 -9 -32 -8 -43 2 -13 -11 -25 -43 -41 l-45 -21 -26
24 c-46 44 -79 28 -79 -36 0 -16 -4 -31 -8 -34 -4 -2 -34 7 -65 21 -71 32 -87
23 -87 -48 0 -27 -4 -49 -9 -49 -5 0 -23 11 -39 25 -17 14 -37 25 -46 25 -22
0 -34 -29 -29 -66 6 -41 -11 -50 -44 -24 -23 18 -29 19 -47 6 -12 -8 -21 -25
-21 -40 -1 -46 -19 -53 -72 -27 -41 20 -48 20 -61 7 -11 -11 -13 -26 -7 -61
l7 -47 76 6 c68 6 80 11 104 36 17 18 33 27 43 24 27 -11 64 6 80 36 13 25 19
28 49 23 28 -4 39 -1 60 20 14 15 26 35 26 47 0 19 4 20 54 14 50 -6 56 -4 82
21 19 19 39 28 63 30 20 0 53 9 74 18 44 20 44 21 26 -77 l-11 -61 -136 -65
c-118 -56 -132 -65 -104 -68 21 -2 62 11 127 42 53 25 98 46 100 46 2 0 5 -19
7 -42 l3 -43 55 -2 c30 -1 49 0 42 3 -29 13 -31 41 -12 155 25 141 25 204 2
249 -22 45 -67 55 -81 17z"/>
<path d="M3685 119 c-40 -22 -155 -106 -155 -115 0 -2 10 -4 23 -4 12 0 53 23
91 50 88 64 99 65 90 1 l-6 -49 40 0 c32 -1 39 3 36 16 -1 9 -6 34 -9 54 -6
41 -27 68 -53 68 -10 0 -35 -10 -57 -21z"/>
</g>
</svg>
