<?xml version="1.0" encoding="utf-8"?>
<!-- Generator: Adobe Illustrator 22.1.0, SVG Export Plug-In . SVG Version: 6.00 Build 0)  -->
<svg version="1.1" id="Layer_1" xmlns="http://www.w3.org/2000/svg" xmlns:xlink="http://www.w3.org/1999/xlink" x="0px" y="0px"
	 viewBox="0 0 32.1 22.3" style="enable-background:new 0 0 32.1 22.3;" xml:space="preserve">
<style type="text/css">
	.st0{enable-background:new    ;}
	.st1{fill:#009687;}
</style>
<g class="st0">
	<path class="st1" d="M0.2,20.1C3,18.9,5,17.3,6.4,15.6c1.4-1.8,2.1-3.8,2.2-6.2C8,9.8,7.4,10.1,6.8,10.3s-1.3,0.3-1.9,0.3
		c-1.4,0-2.6-0.5-3.5-1.5S0,6.9,0,5.4s0.6-2.9,1.7-3.9C2.8,0.5,4.2,0,5.9,0c2,0,3.6,0.7,4.8,2.2s1.8,3.4,1.8,5.9
		c0,3.3-0.9,6.1-2.8,8.5c-1.9,2.4-4.7,4.3-8.5,5.8L0.2,20.1z M19.7,20.1c2.8-1.3,4.8-2.8,6.2-4.5c1.3-1.8,2.1-3.8,2.1-6.2
		c-0.6,0.4-1.2,0.7-1.7,0.9s-1.2,0.3-1.9,0.3c-1.5,0-2.6-0.5-3.5-1.5s-1.3-2.2-1.3-3.8s0.6-2.9,1.7-3.9c1.1-1,2.5-1.5,4.2-1.5
		c2,0,3.6,0.7,4.9,2.2c1.2,1.4,1.8,3.4,1.8,5.9c0,3.3-0.9,6.1-2.8,8.5c-1.9,2.4-4.7,4.3-8.5,5.8L19.7,20.1z"/>
</g>
</svg>
