<?xml version="1.0" encoding="utf-8"?>
<!-- Generator: Adobe Illustrator 22.1.0, SVG Export Plug-In . SVG Version: 6.00 Build 0)  -->
<svg version="1.1" id="Layer_1" xmlns="http://www.w3.org/2000/svg" xmlns:xlink="http://www.w3.org/1999/xlink" x="0px" y="0px"
	 viewBox="0 0 32.1 22.3" style="enable-background:new 0 0 32.1 22.3;" xml:space="preserve">
<style type="text/css">
	.st0{enable-background:new    ;}
	.st1{fill:#009687;}
</style>
<g class="st0">
	<path class="st1" d="M12.3,2.2C9.6,3.4,7.5,4.9,6.2,6.7c-1.3,1.8-2.1,3.8-2.1,6.2c0.6-0.4,1.2-0.7,1.7-0.9c0.6-0.2,1.2-0.3,1.9-0.3
		c1.5,0,2.6,0.5,3.5,1.5s1.3,2.2,1.3,3.8s-0.6,2.9-1.7,3.9c-1.1,1-2.5,1.5-4.2,1.5c-2,0-3.6-0.7-4.9-2.2C0.6,18.7,0,16.8,0,14.3
		C0,11,0.9,8.2,2.8,5.8C4.7,3.5,7.5,1.5,11.3,0L12.3,2.2z M31.9,2.2C29.1,3.5,27,5,25.7,6.8c-1.4,1.8-2.1,3.8-2.2,6.2
		c0.6-0.4,1.2-0.7,1.8-0.9s1.3-0.3,1.9-0.3c1.4,0,2.6,0.5,3.5,1.5s1.3,2.2,1.3,3.8s-0.6,2.9-1.7,3.9c-1.1,1-2.5,1.5-4.2,1.5
		c-2,0-3.6-0.7-4.8-2.2s-1.8-3.4-1.8-5.9c0-3.3,0.9-6.1,2.8-8.5c1.9-2.4,4.7-4.3,8.5-5.8L31.9,2.2z"/>
</g>
</svg>
