<svg id="Layer_1" data-name="Layer 1" xmlns="http://www.w3.org/2000/svg" viewBox="0 0 30.73 30.73"><defs><style>.cls-1{fill:#58595b;}</style></defs><title>MVC_ICON_ALARM_35X35_PX</title><path class="cls-1" d="M8.22,2a6.58,6.58,0,0,0-5,10.83A15.39,15.39,0,0,1,13.47,4.62,6.57,6.57,0,0,0,8.22,2ZM25.78,2a6.57,6.57,0,0,0-5.25,2.61,15.39,15.39,0,0,1,10.28,8.22A6.58,6.58,0,0,0,25.78,2Z" transform="translate(-1.63 -2.02)"/><path class="cls-1" d="M22.56,15.65A1.1,1.1,0,0,0,21,15.39l-3.11,2.2a2.17,2.17,0,0,0-1.65-.07l-4-3.44a1.1,1.1,0,0,0-1.42,1.67h0l4,3.44a2.19,2.19,0,1,0,4.35.39c0-.07,0-.13,0-.2l3.11-2.2A1.1,1.1,0,0,0,22.56,15.65Z" transform="translate(-1.63 -2.02)"/><path class="cls-1" d="M26,29.23A13.17,13.17,0,1,0,8,29.23L7.23,31a1.21,1.21,0,0,0,2.09,1.21l1-1.34a13.17,13.17,0,0,0,13.44,0l1,1.34A1.21,1.21,0,0,0,26.77,31ZM7.07,19.58A9.93,9.93,0,1,1,17,29.51,9.93,9.93,0,0,1,7.07,19.58Z" transform="translate(-1.63 -2.02)"/></svg>