<svg id="Layer_1" data-name="Layer 1" xmlns="http://www.w3.org/2000/svg" viewBox="0 0 34.23 27.54"><defs><style>.cls-1{fill:#58595b;}</style></defs><title>MVC_ICON_BED_35X35_PX</title><path class="cls-1" d="M6.9,17.82h.38a3,3,0,0,1,2.31-2.38,13,13,0,0,1,4.12,0A3,3,0,0,1,16,17.82h3a3,3,0,0,1,2.31-2.38,13,13,0,0,1,4.12,0,3,3,0,0,1,2.31,2.38h.38a7.63,7.63,0,0,1,3.15.68V9.77a3.43,3.43,0,0,0-3.42-3.42H7.18A3.43,3.43,0,0,0,3.75,9.77V18.5A7.65,7.65,0,0,1,6.9,17.82Z" transform="translate(-0.4 -6.35)"/><path class="cls-1" d="M34.62,29.73a1.21,1.21,0,0,1-1.21-1.21c0-.11,0-3.22,0-3.32a5.29,5.29,0,0,0-5.27-5H6.9a5.29,5.29,0,0,0-5.27,5c0,.09,0,3.18,0,3.28A1.21,1.21,0,0,1,.41,29.73h0v4.16H5.95v-2a1,1,0,0,1,1-1H28.06a1,1,0,0,1,1,1v2h5.54V29.73Z" transform="translate(-0.4 -6.35)"/></svg>