<svg id="Layer_1" data-name="Layer 1" xmlns="http://www.w3.org/2000/svg" viewBox="0 0 34.01 31.99"><defs><style>.cls-1{fill:#58595b;}</style></defs><title>MVC_ICON_HANGER_35X35_PX</title><path class="cls-1" d="M.48,20.48a1.08,1.08,0,0,0,1,1.13,1,1,0,0,0,.85-.52H32.61a1,1,0,0,0,.85.52,1.08,1.08,0,0,0,1-1.13,4.88,4.88,0,0,0-.84-2.58l0,0a3.34,3.34,0,0,0-.25-.33h0a4.59,4.59,0,0,0-1.22-1.05,20.7,20.7,0,0,0-3.57-1.62,16.08,16.08,0,0,1-4.47-2.28,9.83,9.83,0,0,1-1.72-1.8A6.33,6.33,0,0,0,18.67,8c-.06,0-.44-.07-.44-.18V7.24a2.29,2.29,0,0,0-.81-1.65A.9.9,0,0,1,18,4c.09,0,.33,0,.64.47a1.51,1.51,0,0,0,.38.41,1.18,1.18,0,0,0,.65.22.8.8,0,0,0,.78-.78.78.78,0,0,0-.62-.76A2.23,2.23,0,0,0,18,2.53a2.41,2.41,0,0,0-1.68,4.13c.23.22.36.39.36.58v.52c0,.15-.86.37-.86.37a6.69,6.69,0,0,0-3.29,2.63,9.77,9.77,0,0,1-1.72,1.8,16.09,16.09,0,0,1-4.47,2.28,20.62,20.62,0,0,0-3.57,1.62,4.55,4.55,0,0,0-1.33,1.19,4.69,4.69,0,0,0-.31.47l0,.07A4.76,4.76,0,0,0,.48,20.48ZM4.81,19.1l12.68-7.75L30.17,19.1Z" transform="translate(-0.48 -2.53)"/><path class="cls-1" d="M22.67,17.42H12.05a1.8,1.8,0,0,0-.73.15C10.22,18,8.91,19.71,8.91,22V33.86a.66.66,0,0,0,.66.66H22.66a.67.67,0,0,0,.66-.66V32.18H12c-.46,0-.77-.21-.77-.7V23.23a11.55,11.55,0,0,1,.2-2.49l1.35-.07c0,.05,0,.1,0,.15V30a.68.68,0,0,0,.68.68H25.39a.68.68,0,0,0,.68-.68V20.83A3.41,3.41,0,0,0,22.67,17.42Z" transform="translate(-0.48 -2.53)"/></svg>