<svg id="Layer_1" data-name="Layer 1" xmlns="http://www.w3.org/2000/svg" viewBox="0 0 27.73 33.78"><defs><style>.cls-1{fill:#58595b;}</style></defs><title>MVC_ICON_STOVE_35X35_PX</title><path class="cls-1" d="M30.71,9.35,27.5,2.19A3.11,3.11,0,0,0,24.9.5H9.24A3.16,3.16,0,0,0,6.62,2.18L3.29,9.36a2.86,2.86,0,0,0-.16.93V32.4A1.88,1.88,0,0,0,5,34.28H29a1.88,1.88,0,0,0,1.88-1.88V10.29A2.94,2.94,0,0,0,30.71,9.35ZM26,28.15a1.11,1.11,0,0,1-1.11,1.11H9.11A1.11,1.11,0,0,1,8,28.15V21.29a1.11,1.11,0,0,1,1.11-1.11H24.89A1.11,1.11,0,0,1,26,21.29Zm1.36-10.84a.74.74,0,0,1-.74.74H7.38a.74.74,0,0,1-.74-.74v-.46a.74.74,0,0,1,.74-.74H26.62a.74.74,0,0,1,.74.74ZM11.5,13.41a1,1,0,1,1,1,1A1,1,0,0,1,11.5,13.41Zm3.94,0A1.56,1.56,0,1,1,17,15,1.56,1.56,0,0,1,15.44,13.41Zm5.12,0a1,1,0,1,1,1,1A1,1,0,0,1,20.56,13.41ZM5.95,9.08,8.39,2.63a1.3,1.3,0,0,1,.85-.54H24.9a1.25,1.25,0,0,1,.82.53l2.36,6.46Z" transform="translate(-3.14 -0.5)"/><ellipse class="cls-1" cx="9.28" cy="6.32" rx="2.76" ry="1.21"/><ellipse class="cls-1" cx="18.99" cy="6.32" rx="2.22" ry="0.97"/><ellipse class="cls-1" cx="10.01" cy="3.28" rx="1.67" ry="0.73"/><ellipse class="cls-1" cx="18.27" cy="3.28" rx="1.67" ry="0.73"/></svg>